<svg width="12" height="19" viewBox="0 0 12 19" fill="none" xmlns="http://www.w3.org/2000/svg">
<path d="M6.02396 9.81975C8.96477 9.81975 11.3622 7.61472 11.3622 4.90987C11.3622 2.20503 8.96477 0 6.02396 0C3.05119 0 0.653809 2.20503 0.653809 4.90987C0.653809 7.61472 3.05119 9.81975 6.02396 9.81975ZM6.02396 2.88125C7.23864 2.88125 8.22956 3.79265 8.22956 4.90987C8.22956 6.02709 7.23864 6.9385 6.02396 6.9385C4.80928 6.9385 3.81837 6.02709 3.81837 4.90987C3.7864 3.79265 4.77733 2.88125 6.02396 2.88125Z" fill="white"/>
<path d="M8.16653 13.8475C9.25335 13.6124 10.3082 13.2302 11.2672 12.6716C12.0023 12.26 12.2261 11.3485 11.7466 10.6723C11.2991 9.99613 10.3082 9.79033 9.573 10.2313C7.39937 11.4956 4.55446 11.4956 2.38083 10.2313C1.64564 9.81972 0.686675 9.99613 0.207198 10.6723C-0.20835 11.3485 0.0154063 12.2306 0.750605 12.6422C1.70956 13.2008 2.76441 13.583 3.85123 13.8182L0.878467 16.5525C0.271128 17.111 0.271128 18.0225 0.878467 18.5811C1.19812 18.8751 1.5817 18.9927 1.99725 18.9927C2.4128 18.9927 2.79638 18.8456 3.11603 18.5811L6.05683 15.8762L8.99763 18.5811C9.60496 19.1397 10.5959 19.1397 11.2032 18.5811C11.8106 18.0225 11.8106 17.111 11.2032 16.5525L8.16653 13.8475Z" fill="white"/>
</svg>
