<svg width="32" height="32" viewBox="0 0 32 32" fill="none" xmlns="http://www.w3.org/2000/svg">
<path fill-rule="evenodd" clip-rule="evenodd" d="M32 0H0V32H32V0ZM12.2105 14.2611C13.2034 15.2697 14.5484 15.839 15.9526 15.8449C16.6513 15.8539 17.3447 15.7208 17.9919 15.4534C18.6391 15.186 19.227 14.7897 19.7211 14.2878C20.2151 13.7859 20.6053 13.1887 20.8686 12.5313C21.1318 11.8738 21.2629 11.1695 21.254 10.4599C21.2647 9.74612 21.1355 9.03739 20.8738 8.37492C20.6121 7.71248 20.2232 7.10957 19.7297 6.60137C19.2363 6.09316 18.6482 5.68984 17.9997 5.4149C17.3512 5.13997 16.6553 4.99893 15.9526 5.00001C14.5411 5.02351 13.195 5.60863 12.2037 6.62959C11.2124 7.65055 10.655 9.02586 10.6513 10.4599C10.6571 11.8862 11.2175 13.2525 12.2105 14.2611ZM15.09 8.39374C15.3629 8.27633 15.6563 8.21591 15.9526 8.21608C16.249 8.21591 16.5424 8.27633 16.8153 8.39374C17.0882 8.51115 17.3351 8.68313 17.5412 8.89949C17.7473 9.11582 17.9084 9.37208 18.015 9.653C18.1216 9.93392 18.1714 10.2338 18.1615 10.5346C18.1587 10.825 18.0991 11.1119 17.9861 11.3786C17.8732 11.6453 17.7092 11.8866 17.5037 12.0884C17.2982 12.2902 17.0552 12.4485 16.789 12.5542C16.5227 12.6597 16.2384 12.7106 15.9526 12.7036C15.6651 12.718 15.3776 12.6722 15.1081 12.5693C14.8386 12.4664 14.5928 12.3084 14.3857 12.1051C14.1787 11.9018 14.015 11.6576 13.9045 11.3874C13.7941 11.1173 13.7394 10.8271 13.7438 10.5346C13.7339 10.2338 13.7837 9.93392 13.8903 9.653C13.9969 9.37208 14.158 9.11582 14.3641 8.89949C14.5702 8.68313 14.8171 8.51115 15.09 8.39374ZM21.1067 23.3241L18.0879 20.3324C19.2162 19.982 20.3028 19.5054 21.3276 18.9114C21.6566 18.6728 21.8848 18.3169 21.9667 17.9148C22.0486 17.5127 21.9781 17.094 21.7694 16.7424C21.657 16.5613 21.5096 16.4054 21.336 16.284C21.1624 16.1626 20.9664 16.0784 20.7598 16.0364C20.5531 15.9944 20.3403 15.9956 20.1341 16.0398C19.9279 16.084 19.7328 16.1704 19.5605 16.2936C18.4828 16.954 17.248 17.303 15.9895 17.303C14.7309 17.303 13.4961 16.954 12.4184 16.2936C12.2462 16.1704 12.051 16.084 11.8448 16.0398C11.6387 15.9956 11.4258 15.9944 11.2192 16.0364C11.0125 16.0784 10.8165 16.1626 10.6429 16.284C10.4694 16.4054 10.3219 16.5613 10.2096 16.7424C10.008 17.1028 9.94908 17.5276 10.0448 17.9305C10.1406 18.3334 10.3838 18.6841 10.725 18.9114C11.7241 19.5051 12.7862 19.9818 13.891 20.3324L10.7986 23.3241C10.6583 23.4665 10.5471 23.6356 10.4712 23.8217C10.3952 24.0077 10.3562 24.2072 10.3562 24.4086C10.3562 24.61 10.3952 24.8095 10.4712 24.9956C10.5471 25.1817 10.6583 25.3507 10.7986 25.4931C11.1046 25.7678 11.4949 25.9264 11.903 25.9418C12.1077 25.9492 12.3117 25.9131 12.5018 25.8358C12.692 25.7585 12.8642 25.6418 13.0075 25.4931L15.9526 22.5014L18.9715 25.4931C19.1021 25.6518 19.2654 25.7794 19.4498 25.867C19.6343 25.9546 19.8354 26 20.0391 26C20.2427 26 20.4439 25.9546 20.6283 25.867C20.8128 25.7794 20.9761 25.6518 21.1067 25.4931C21.247 25.3507 21.3582 25.1817 21.4341 24.9956C21.51 24.8095 21.5491 24.61 21.5491 24.4086C21.5491 24.2072 21.51 24.0077 21.4341 23.8217C21.3582 23.6356 21.247 23.4665 21.1067 23.3241Z" fill="#B5B6B6"/>
</svg>
