<svg width="22" height="22" viewBox="0 0 22 22" fill="none" xmlns="http://www.w3.org/2000/svg">
<path d="M11.5232 11.303C14.219 11.303 16.4166 9.21399 16.4166 6.65148C16.4166 4.08899 14.219 2 11.5232 2C8.79819 2 6.60059 4.08899 6.60059 6.65148C6.60059 9.21399 8.79819 11.303 11.5232 11.303ZM11.5232 4.72962C12.6367 4.72962 13.545 5.59306 13.545 6.65148C13.545 7.7099 12.6367 8.57336 11.5232 8.57336C10.4098 8.57336 9.50143 7.7099 9.50143 6.65148C9.47213 5.59306 10.3805 4.72962 11.5232 4.72962Z" fill="#C4C4C4"/>
<path d="M13.486 15.1186C14.4822 14.8958 15.4492 14.5337 16.3282 14.0045C17.0021 13.6146 17.2073 12.7511 16.7677 12.1105C16.3575 11.4699 15.4492 11.2749 14.7753 11.6927C12.7828 12.8904 10.1749 12.8904 8.18243 11.6927C7.5085 11.3027 6.62945 11.4699 6.18993 12.1105C5.80901 12.7511 6.01412 13.5867 6.68805 13.9767C7.5671 14.5059 8.53404 14.868 9.53029 15.0908L6.80526 17.6812C6.24853 18.2104 6.24853 19.0739 6.80526 19.603C7.09828 19.8816 7.44989 19.993 7.83081 19.993C8.21173 19.993 8.56334 19.8537 8.85636 19.603L11.5521 17.0405L14.2478 19.603C14.8045 20.1322 15.7129 20.1322 16.2696 19.603C16.8263 19.0739 16.8263 18.2104 16.2696 17.6812L13.486 15.1186Z" fill="#C4C4C4"/>
</svg>
