<svg width="14" height="22" viewBox="0 0 14 22" fill="none" xmlns="http://www.w3.org/2000/svg">
<path d="M7.02885 11.3703C10.4598 11.3703 13.2567 8.81709 13.2567 5.68514C13.2567 2.55321 10.4598 0 7.02885 0C3.56062 0 0.763672 2.55321 0.763672 5.68514C0.763672 8.81709 3.56062 11.3703 7.02885 11.3703ZM7.02885 3.3362C8.44597 3.3362 9.60205 4.39151 9.60205 5.68514C9.60205 6.97877 8.44597 8.0341 7.02885 8.0341C5.61172 8.0341 4.45566 6.97877 4.45566 5.68514C4.41836 4.39151 5.57444 3.3362 7.02885 3.3362Z" fill="white"/>
<path d="M9.52762 16.034C10.7956 15.7617 12.0262 15.3191 13.145 14.6723C14.0027 14.1957 14.2638 13.1404 13.7044 12.3574C13.1823 11.5744 12.0262 11.3361 11.1685 11.8467C8.6326 13.3106 5.31354 13.3106 2.77763 11.8467C1.91991 11.3701 0.801121 11.5744 0.241731 12.3574C-0.243075 13.1404 0.017974 14.1617 0.875706 14.6383C1.99448 15.2851 3.22514 15.7276 4.4931 16L1.02488 19.166C0.316316 19.8128 0.316316 20.8682 1.02488 21.5149C1.3978 21.8554 1.84531 21.9916 2.33012 21.9916C2.81493 21.9916 3.26244 21.8212 3.63537 21.5149L7.0663 18.3829L10.4972 21.5149C11.2058 22.1617 12.3619 22.1617 13.0704 21.5149C13.779 20.8682 13.779 19.8128 13.0704 19.166L9.52762 16.034Z" fill="white"/>
</svg>
