<svg width="22" height="22" viewBox="0 0 22 22" fill="none" xmlns="http://www.w3.org/2000/svg">
<path d="M11.5242 11.303C14.2199 11.303 16.4175 9.21399 16.4175 6.65148C16.4175 4.08899 14.2199 2 11.5242 2C8.79917 2 6.60156 4.08899 6.60156 6.65148C6.60156 9.21399 8.79917 11.303 11.5242 11.303ZM11.5242 4.72962C12.6377 4.72962 13.546 5.59306 13.546 6.65148C13.546 7.7099 12.6377 8.57336 11.5242 8.57336C10.4107 8.57336 9.50241 7.7099 9.50241 6.65148C9.47311 5.59306 10.3815 4.72962 11.5242 4.72962Z" fill="#00CEBF"/>
<path d="M13.486 15.1187C14.4822 14.8959 15.4492 14.5338 16.3282 14.0046C17.0021 13.6147 17.2073 12.7512 16.7677 12.1106C16.3575 11.47 15.4492 11.275 14.7753 11.6928C12.7828 12.8905 10.1749 12.8905 8.18243 11.6928C7.5085 11.3029 6.62945 11.47 6.18993 12.1106C5.80901 12.7512 6.01412 13.5868 6.68805 13.9768C7.5671 14.506 8.53404 14.8681 9.53029 15.0909L6.80526 17.6813C6.24853 18.2105 6.24853 19.074 6.80526 19.6032C7.09828 19.8817 7.44989 19.9931 7.83081 19.9931C8.21173 19.9931 8.56334 19.8538 8.85636 19.6032L11.5521 17.0406L14.2478 19.6032C14.8045 20.1323 15.7129 20.1323 16.2696 19.6032C16.8263 19.074 16.8263 18.2105 16.2696 17.6813L13.486 15.1187Z" fill="#00CEBF"/>
</svg>
