<svg width="20" height="20" viewBox="0 0 20 20" fill="none" xmlns="http://www.w3.org/2000/svg">
<path fill-rule="evenodd" clip-rule="evenodd" d="M9 2C5.13401 2 2 5.13401 2 9C2 12.866 5.13401 16 9 16C12.866 16 16 12.866 16 9C16 5.13401 12.866 2 9 2ZM0 9C0 4.02944 4.02944 0 9 0C13.9706 0 18 4.02944 18 9C18 13.9706 13.9706 18 9 18C4.02944 18 0 13.9706 0 9Z" fill="#A6A8A8"/>
<path fill-rule="evenodd" clip-rule="evenodd" d="M14.2767 14.2767C14.6457 13.9078 15.244 13.9078 15.613 14.2767L19.7233 18.387C20.0922 18.756 20.0922 19.3543 19.7233 19.7233C19.3543 20.0922 18.756 20.0922 18.387 19.7233L14.2767 15.613C13.9078 15.244 13.9078 14.6457 14.2767 14.2767Z" fill="#A6A8A8"/>
</svg>
