<svg width="22" height="22" viewBox="0 0 22 22" fill="none" xmlns="http://www.w3.org/2000/svg">
<path fill-rule="evenodd" clip-rule="evenodd" d="M3.16866 10.4574C7.73205 8.34056 10.775 6.945 12.2976 6.27074C16.6448 4.34558 17.5481 4.01116 18.1369 4.00012C18.2664 3.99769 18.5559 4.03186 18.7435 4.19389C18.9018 4.33071 18.9454 4.51553 18.9663 4.64524C18.9871 4.77496 19.0131 5.07046 18.9924 5.30136C18.7569 7.93675 17.7375 14.3322 17.2189 17.2838C16.9995 18.5328 16.5674 18.9516 16.1492 18.9926C15.2401 19.0816 14.5498 18.3529 13.6694 17.7384C12.2916 16.7769 11.5133 16.1783 10.176 15.24C8.63045 14.1556 9.63235 13.5596 10.5131 12.5856C10.7436 12.3307 14.7489 8.45188 14.8264 8.10001C14.8361 8.05601 14.8451 7.89197 14.7536 7.80535C14.6621 7.71873 14.527 7.74835 14.4295 7.77191C14.2913 7.8053 12.0904 9.35418 7.82663 12.4185C7.2019 12.8753 6.63604 13.0978 6.12904 13.0862C5.57012 13.0733 4.49499 12.7497 3.69573 12.4731C2.71541 12.1338 1.93627 11.9544 2.00412 11.3782C2.03946 11.0781 2.42764 10.7712 3.16866 10.4574Z" fill="#00CEBF"/>
</svg>
