<svg width="20" height="18" viewBox="0 0 20 18" fill="none" xmlns="http://www.w3.org/2000/svg">
<path fill-rule="evenodd" clip-rule="evenodd" d="M1.3749 7.74888C6.74359 5.20867 10.3236 3.534 12.1148 2.72489C17.2292 0.414697 18.2919 0.0133926 18.9846 0.000141289C19.1369 -0.00277319 19.4776 0.0382296 19.6982 0.232668C19.8845 0.396848 19.9358 0.618632 19.9603 0.774293C19.9848 0.929954 20.0154 1.28455 19.9911 1.56163C19.714 4.7241 18.5147 12.3986 17.9046 15.9406C17.6465 17.4394 17.1382 17.9419 16.6461 17.9911C15.5766 18.098 14.7645 17.2235 13.7287 16.4861C12.1078 15.3323 11.1921 14.614 9.61879 13.488C7.80053 12.1868 8.97923 11.4716 10.0154 10.3027C10.2866 9.99686 14.9987 5.34226 15.0899 4.92001C15.1013 4.86721 15.1119 4.67036 15.0042 4.56642C14.8965 4.46248 14.7376 4.49802 14.6229 4.52629C14.4604 4.56636 11.871 6.42501 6.85486 10.1022C6.11988 10.6503 5.45416 10.9174 4.8577 10.9034C4.20015 10.888 2.93528 10.4996 1.99498 10.1677C0.84166 9.76056 -0.074973 9.5453 0.00484519 8.85385C0.0464194 8.4937 0.503103 8.12538 1.3749 7.74888Z" fill="white"/>
</svg>
