<svg width="22" height="22" viewBox="0 0 22 22" fill="none" xmlns="http://www.w3.org/2000/svg">
<path fill-rule="evenodd" clip-rule="evenodd" d="M8.87275 2.10309C8.98734 2.09016 9.10192 2.07722 9.21618 2.06194C9.311 2.05661 9.40587 2.05173 9.50074 2.04685C9.73527 2.03479 9.96984 2.02273 10.2038 2.00388C10.6388 1.99904 11.0741 1.99762 11.5091 2.00616C11.6227 2.0202 11.737 2.02422 11.8512 2.02823C11.9638 2.03219 12.0763 2.03614 12.1882 2.0497C12.403 2.05458 12.6162 2.07984 12.8293 2.1051C12.9643 2.12109 13.0992 2.13708 13.2346 2.1479C13.6874 2.20852 14.1391 2.28053 14.5869 2.37246C15.4685 2.55775 16.3538 2.79598 17.1424 3.2451C17.8652 3.63047 18.4955 4.20227 18.9206 4.9067C19.156 5.30152 19.3422 5.72382 19.4752 6.16414C19.6465 6.7977 19.7883 7.44122 19.8515 8.09556C19.8797 8.27164 19.8924 8.44928 19.9052 8.62701C19.9121 8.72334 19.919 8.81969 19.9284 8.91583C19.9443 9.00716 19.9457 9.09949 19.9472 9.19181C19.9485 9.2773 19.9499 9.36279 19.9627 9.44749C19.9721 9.51942 19.9738 9.59195 19.9755 9.66445C19.9764 9.70298 19.9773 9.74151 19.9794 9.77993C20.0025 9.99457 20.0008 10.2103 19.999 10.4261C19.9982 10.5253 19.9974 10.6245 19.999 10.7237C20.0031 10.8582 19.9939 10.9921 19.9847 11.1261C19.9776 11.2294 19.9705 11.3327 19.9695 11.4364C19.9541 11.5315 19.9509 11.6275 19.9478 11.7234C19.9446 11.8205 19.9414 11.9176 19.9255 12.0136C19.8778 12.5462 19.7963 13.0753 19.6817 13.5975C19.629 13.8814 19.542 14.1567 19.455 14.4317C19.4272 14.5195 19.3995 14.6073 19.3729 14.6953C19.1744 15.2369 18.9248 15.7649 18.5863 16.2334C18.1345 16.8663 17.4684 17.3141 16.7644 17.6206C16.5845 17.7074 16.3984 17.7807 16.2077 17.84C15.8517 17.9689 15.4879 18.0748 15.1186 18.1574C15.0804 18.1654 15.0422 18.1735 15.004 18.1815C14.541 18.2792 14.0769 18.3772 13.6049 18.4192C13.4861 18.4339 13.3671 18.4474 13.2481 18.4609C13.1223 18.4752 12.9964 18.4895 12.8707 18.5052C12.7433 18.5059 12.617 18.5206 12.4906 18.5353C12.361 18.5504 12.2314 18.5655 12.1006 18.5655C11.6783 18.6108 11.2527 18.6029 10.8285 18.5949C10.7625 18.5937 10.6965 18.5925 10.6306 18.5914C10.315 18.5584 9.9835 18.5316 9.68122 18.6506C9.50986 18.7144 9.37078 18.8337 9.23346 18.9515C9.20898 18.9725 9.18456 18.9935 9.16003 19.0141C9.07594 19.0854 9.002 19.167 8.92803 19.2486C8.87655 19.3055 8.82506 19.3623 8.77013 19.4157C8.64733 19.5354 8.53232 19.6627 8.41732 19.79C8.32546 19.8916 8.23361 19.9932 8.13778 20.0911C8.01548 20.2394 7.88537 20.3811 7.75528 20.5228C7.57171 20.7226 7.38818 20.9225 7.2267 21.141C7.16584 21.2104 7.10857 21.2834 7.05128 21.3564C6.92998 21.5109 6.80857 21.6656 6.65276 21.7868C6.64054 21.7961 6.62832 21.8055 6.61608 21.8149C6.51953 21.8892 6.42115 21.9649 6.30313 22C6.30296 21.5265 6.30101 21.0529 6.29906 20.5794C6.2978 20.2732 6.29654 19.9669 6.29576 19.6607C6.28322 19.3403 6.28339 19.0195 6.28356 18.6988C6.28365 18.5263 6.28374 18.3539 6.28186 18.1816C6.28936 18.1138 6.23131 18.0805 6.17819 18.05C6.16303 18.0413 6.14826 18.0329 6.13554 18.0239C5.93735 17.9196 5.73392 17.8259 5.53043 17.7322C5.34088 17.645 5.15128 17.5577 4.96584 17.4618C4.82441 17.3965 4.69525 17.3103 4.56613 17.2241C4.51222 17.1881 4.45832 17.1521 4.40353 17.1177C4.19974 16.9904 4.02341 16.8266 3.84799 16.6637C3.8257 16.6429 3.80342 16.6223 3.78111 16.6017C3.7461 16.5622 3.7107 16.5229 3.67527 16.4837C3.53019 16.323 3.38479 16.162 3.26559 15.9803C3.03844 15.6482 2.84844 15.292 2.69903 14.9181C2.56537 14.6378 2.48419 14.3383 2.40314 14.0392C2.37879 13.9493 2.35444 13.8595 2.32869 13.7703C2.18359 13.2222 2.12946 12.6572 2.07552 12.0943C2.06811 12.017 2.0607 11.9397 2.05307 11.8625C2.05727 11.7358 2.04684 11.6099 2.03641 11.4841C2.02641 11.3634 2.01641 11.2427 2.01932 11.1213C1.99404 10.7046 1.99357 10.2867 2.01791 9.86987C2.01778 9.74338 2.02738 9.61753 2.03698 9.49171C2.04765 9.35197 2.05831 9.21228 2.05562 9.0718C2.07266 8.92725 2.08643 8.78237 2.1002 8.6375C2.12447 8.38216 2.14873 8.12688 2.19088 7.87356C2.25655 7.41614 2.34695 6.96264 2.46169 6.51508C2.53253 6.19827 2.65639 5.89762 2.77959 5.59856C2.78412 5.58757 2.78865 5.57658 2.79317 5.5656C3.0952 4.89675 3.55122 4.3095 4.12366 3.8522C4.68936 3.37261 5.35517 3.02594 6.04367 2.76153C6.1173 2.73678 6.19083 2.71163 6.26439 2.68648C6.60442 2.5702 6.94478 2.4538 7.29588 2.37588C7.4199 2.35341 7.54296 2.32581 7.66602 2.29821C7.85782 2.25519 8.04961 2.21218 8.24497 2.1886C8.45297 2.15049 8.66287 2.12679 8.87275 2.10309ZM12.201 8.06217C12.0127 7.98831 11.8043 7.983 11.6048 8.00426C11.4116 8.01629 11.2982 8.22919 11.3293 8.40014C11.3797 8.54608 11.5519 8.57446 11.6873 8.59679L11.6891 8.59709C11.9032 8.6234 12.1044 8.70788 12.289 8.8142C12.4356 8.89841 12.5422 9.03242 12.6423 9.16336C12.7772 9.38242 12.8243 9.63925 12.8683 9.88769C12.8806 9.96753 12.9201 10.041 12.9804 10.0961C13.0632 10.1795 13.2004 10.1675 13.3022 10.1291C13.4422 10.0595 13.4613 9.88461 13.4668 9.74808C13.4825 9.3203 13.2707 8.91883 12.9878 8.60549C12.7722 8.36706 12.5028 8.18104 12.201 8.06217ZM11.0254 5.27148C10.9037 5.26424 10.7808 5.25693 10.6623 5.28822C10.5549 5.32683 10.4888 5.44042 10.4897 5.54981C10.4805 5.63794 10.4885 5.74621 10.5809 5.79097C10.6964 5.84614 10.8231 5.85648 10.9496 5.8668C11.0143 5.87208 11.079 5.87735 11.1421 5.88861C11.6983 5.98178 12.2564 6.10069 12.7752 6.32311C13.6349 6.63989 14.3588 7.23367 14.828 8.00677C14.9299 8.18844 15.0255 8.37328 15.1146 8.56129C15.3024 8.99801 15.4099 9.46159 15.5142 9.92266C15.5217 9.97072 15.5302 10.0187 15.5386 10.0666C15.5608 10.1926 15.5829 10.3186 15.5893 10.4467C15.6014 10.5155 15.6035 10.5854 15.6057 10.6553C15.6086 10.7493 15.6114 10.8433 15.6385 10.9343C15.7022 11.1279 15.992 11.1551 16.1309 11.0258C16.217 10.9272 16.2143 10.7933 16.2117 10.6689C16.2114 10.6505 16.211 10.6322 16.2109 10.6143C16.2139 10.2771 16.1891 9.94029 16.1366 9.60707C15.9577 8.60129 15.4419 7.66797 14.7311 6.92657C14.2655 6.45236 13.7257 6.04137 13.1141 5.76356C12.4885 5.47148 11.804 5.27927 11.1073 5.27591C11.0801 5.27473 11.0528 5.27311 11.0254 5.27148ZM7.15022 5.47567C6.97903 5.40266 6.78555 5.41104 6.60465 5.43454L6.60465 5.43454C6.33915 5.50588 6.08766 5.62143 5.84616 5.74901C5.58553 5.91295 5.34289 6.11523 5.17027 6.36926C4.85161 6.83676 4.79131 7.44108 4.94392 7.976C5.03331 8.25535 5.15275 8.52347 5.27212 8.79141C5.31151 8.87984 5.35089 8.96825 5.38919 9.05704C5.78929 9.88125 6.24942 10.68 6.79442 11.4214C6.92471 11.6187 7.07514 11.8018 7.22544 11.9848C7.23734 11.9993 7.24923 12.0137 7.26111 12.0282C7.5889 12.4408 7.94354 12.8323 8.32282 13.2002C8.88259 13.7583 9.49063 14.2679 10.1402 14.7233C10.3647 14.895 10.6052 15.0444 10.8457 15.1937C10.93 15.246 11.0143 15.2984 11.0978 15.3516C11.7887 15.7693 12.5082 16.1396 13.2513 16.4598C13.443 16.5552 13.6511 16.6129 13.8586 16.6666C14.0352 16.713 14.2204 16.694 14.3962 16.654C14.866 16.5289 15.2914 16.2791 15.6253 15.9322C15.9406 15.6365 16.2086 15.2694 16.2929 14.843C16.3613 14.6005 16.2864 14.3366 16.1369 14.138C16.0339 13.9884 15.8877 13.8787 15.7428 13.7699C15.7105 13.7456 15.6782 13.7214 15.6465 13.6968C15.1971 13.3476 14.7345 13.0167 14.2587 12.7039C14.248 12.6975 14.2374 12.6911 14.2267 12.6846C14.0654 12.5877 13.9018 12.4894 13.7177 12.4403C13.5405 12.3777 13.3487 12.3799 13.1638 12.3953C12.8866 12.4398 12.6577 12.6219 12.4802 12.8256C12.4427 12.8711 12.4084 12.9192 12.3742 12.9673C12.3111 13.0558 12.2481 13.1442 12.165 13.2161C11.9772 13.4061 11.6766 13.4654 11.4214 13.3941C11.1582 13.3317 10.9144 13.2094 10.6795 13.0805C9.83294 12.6451 9.10132 11.9874 8.6149 11.1788C8.41113 10.8465 8.22165 10.4931 8.16163 10.1056C8.13363 9.95595 8.1725 9.80347 8.22079 9.66191C8.33397 9.39864 8.57631 9.22043 8.8101 9.0646C9.05788 8.89393 9.26821 8.62955 9.26164 8.31956C9.24669 8.03118 9.09885 7.77253 8.95785 7.52583L8.95242 7.51633C8.56317 6.88405 8.12134 6.27554 7.57605 5.76216C7.45231 5.64409 7.31341 5.5361 7.15022 5.47567ZM11.3593 6.61155C11.288 6.59695 11.2143 6.59705 11.143 6.61183C10.9301 6.64316 10.8706 6.8958 10.9329 7.0673C10.9928 7.19565 11.1494 7.21724 11.2767 7.23479L11.2793 7.23516C11.447 7.2444 11.6074 7.28978 11.7677 7.33514C11.8405 7.35573 11.9132 7.37631 11.9867 7.39351C12.1607 7.43279 12.3263 7.49834 12.4916 7.56372C12.5146 7.57285 12.5377 7.58198 12.5608 7.59104C12.8823 7.72127 13.1735 7.91379 13.417 8.15701C13.696 8.45721 13.888 8.83043 13.9969 9.22043C14.1221 9.57938 14.1838 9.95707 14.2152 10.3345C14.223 10.4374 14.2881 10.539 14.3939 10.5678C14.5033 10.5857 14.6254 10.577 14.7185 10.5119C14.7769 10.4478 14.8082 10.3644 14.806 10.2785C14.8062 10.2462 14.8066 10.2137 14.807 10.1813C14.8098 9.95905 14.8126 9.73606 14.7663 9.51755C14.7568 9.47652 14.7478 9.43528 14.7388 9.39401C14.6998 9.2155 14.6608 9.03637 14.5802 8.87071C14.2784 8.08343 13.6417 7.45059 12.8992 7.04548C12.6467 6.9184 12.381 6.81832 12.1067 6.74696C11.9371 6.69978 11.763 6.67375 11.589 6.64775C11.5123 6.63628 11.4356 6.62482 11.3593 6.61155Z" fill="#C4C4C4"/>
</svg>
