<svg width="22" height="23" viewBox="0 0 22 23" fill="none" xmlns="http://www.w3.org/2000/svg">
<path d="M19.5333 2.24445C18.9579 1.71539 16.6285 0.0377331 11.4435 0.0168495C11.4435 0.0168495 5.32531 -0.352087 2.32235 2.36278C0.659488 4.01259 0.077136 6.42117 0.0139894 9.40753C-0.0491571 12.3939 -0.126337 17.9907 5.31128 19.5082V21.8263C5.31128 21.8263 5.31128 22.7661 5.90065 22.954C6.65139 23.1907 7.09342 22.4737 7.81609 21.708C8.209 21.2833 8.75628 20.6638 9.16322 20.1904C11.4766 20.4049 13.8099 20.2355 16.0672 19.6892C16.818 19.4456 21.0698 18.9096 21.7645 13.3058C22.5012 7.53496 21.4417 3.88729 19.5333 2.24445ZM20.1648 12.8951C19.5754 17.5661 16.1304 17.8584 15.4989 18.0603C13.5567 18.5353 11.5516 18.7068 9.55613 18.5685C9.55613 18.5685 7.19866 21.353 6.46195 22.1187C6.42097 22.1667 6.36906 22.2044 6.3105 22.2286C6.25194 22.2528 6.18841 22.2629 6.12517 22.2579C5.99888 22.2231 5.96379 22.0769 5.96379 21.8611C5.96379 21.6453 5.96379 18.0116 5.96379 18.0116C1.36111 16.7377 1.62773 11.9762 1.68386 9.4841C1.74 6.99199 2.21009 4.94539 3.61334 3.56707C6.13219 1.30468 11.3313 1.63881 11.3313 1.63881C15.7164 1.63881 17.8213 2.96841 18.3054 3.40697C19.9402 4.78529 20.7611 8.07097 20.1648 12.8951Z" fill="white"/>
<path d="M13.5724 9.27519C13.5917 9.03925 13.56 8.80195 13.4794 8.57914C13.3989 8.35633 13.2713 8.15314 13.1053 7.98314C12.9393 7.81315 12.7386 7.68025 12.5166 7.59335C12.2947 7.50645 12.0567 7.46753 11.8184 7.4792" stroke="white" stroke-width="0.84" stroke-linecap="round" stroke-linejoin="round"/>
<path d="M15.0806 9.75542C15.1095 9.27085 15.0406 8.78542 14.878 8.32761C14.7153 7.86979 14.4622 7.44879 14.1334 7.08928C13.4128 6.36458 12.4369 5.94537 11.4111 5.9198" stroke="white" stroke-width="0.84" stroke-linecap="round" stroke-linejoin="round"/>
<path d="M16.6197 10.3753C16.6563 9.57482 16.5277 8.77542 16.2418 8.02607C15.9558 7.27672 15.5186 6.59324 14.9569 6.01754C14.4166 5.49173 13.7758 5.07855 13.072 4.80238C12.3683 4.5262 11.616 4.39262 10.8594 4.4095" stroke="white" stroke-width="0.84" stroke-linecap="round" stroke-linejoin="round"/>
<path d="M11.89 13.1733C12.0063 13.1819 12.1231 13.1652 12.2322 13.1243C12.3413 13.0834 12.44 13.0194 12.5215 12.9366L12.9565 12.3936C13.1055 12.231 13.3075 12.1258 13.527 12.0965C13.7465 12.0672 13.9693 12.1157 14.1563 12.2335C14.5286 12.4466 14.8892 12.6789 15.2368 12.9297C15.5666 13.1733 16.2331 13.7232 16.2331 13.7302C16.3902 13.8562 16.4949 14.0352 16.5272 14.233C16.5596 14.4307 16.5173 14.6334 16.4085 14.8022C16.1698 15.2137 15.8666 15.585 15.5104 15.9021C15.2534 16.1337 14.9341 16.286 14.5913 16.3407C14.5472 16.3482 14.5021 16.3482 14.458 16.3407C14.3272 16.3426 14.1969 16.3238 14.0721 16.285C13.1976 15.985 12.356 15.5978 11.5603 15.1294C10.8196 14.7262 10.1154 14.2604 9.4554 13.7372C9.12384 13.4769 8.80759 13.198 8.5082 12.9018H8.47312C8.17639 12.6007 7.89537 12.2847 7.63117 11.9551C7.10612 11.2986 6.63677 10.6001 6.22791 9.86673C5.75561 9.07828 5.36761 8.24305 5.07022 7.37461C5.02877 7.24874 5.00747 7.11721 5.00708 6.98479C5.00285 6.9408 5.00285 6.89651 5.00708 6.85252C5.06105 6.51416 5.21486 6.19925 5.4491 5.94756C5.71899 5.54207 6.05305 5.18242 6.4384 4.8825C6.60963 4.7741 6.81504 4.73193 7.01557 4.76402C7.21609 4.79611 7.39773 4.90022 7.52592 5.05653C7.52592 5.05653 8.08722 5.75265 8.32578 6.04502C8.56433 6.33739 8.85901 6.84557 9.02741 7.11705C9.14311 7.30519 9.18956 7.52728 9.15886 7.74556C9.12816 7.96385 9.02221 8.16484 8.85902 8.31437L8.31175 8.739C8.22819 8.82121 8.16359 8.92041 8.12241 9.02977C8.08123 9.13913 8.06444 9.25606 8.07319 9.37248C8.34054 10.271 8.82961 11.0892 9.49609 11.7528C10.1626 12.4165 10.9854 12.9048 11.89 13.1733Z" fill="white"/>
</svg>
