<svg width="22" height="22" viewBox="0 0 22 22" fill="none" xmlns="http://www.w3.org/2000/svg">
<rect x="3" y="3" width="16" height="15" rx="5" fill="#00CEBF"/>
<path d="M6.95354 20.9272L6.36264 17.06L9.38625 17.8635L6.95354 20.9272Z" fill="#00CEBF"/>
<path d="M17.9818 3.85411C17.5111 3.41706 15.6052 2.03117 11.3629 2.01392C11.3629 2.01392 6.35708 1.70915 3.9001 3.95187C2.53958 5.31475 2.06311 7.30444 2.01145 9.77143C1.95978 12.2384 1.89663 16.8619 6.34559 18.1155V20.0304C6.34559 20.0304 6.3456 20.8068 6.82781 20.962C7.44205 21.1576 7.8037 20.5652 8.39498 19.9327C8.71646 19.5819 9.16423 19.0701 9.49718 18.6791C11.39 18.8562 13.299 18.7163 15.1459 18.265C15.7602 18.0637 19.239 17.621 19.8073 12.9918C20.41 8.22453 19.5432 5.21124 17.9818 3.85411ZM18.4984 12.6525C18.0162 16.5111 15.1976 16.7526 14.6809 16.9194C13.0918 17.3118 11.4513 17.4534 9.81865 17.3392C9.81865 17.3392 7.88981 19.6394 7.28705 20.272C7.25352 20.3117 7.21105 20.3428 7.16313 20.3628C7.11522 20.3828 7.06325 20.3911 7.0115 20.387C6.90817 20.3582 6.87947 20.2375 6.87947 20.0592C6.87947 19.8809 6.87947 16.8791 6.87947 16.8791C3.11364 15.8268 3.33178 11.8934 3.37771 9.83469C3.42363 7.77599 3.80825 6.08532 4.95637 4.94671C7.01724 3.07778 11.271 3.3538 11.271 3.3538C14.8589 3.3538 16.5811 4.45216 16.9772 4.81445C18.3147 5.95306 18.9864 8.66732 18.4984 12.6525Z" fill="#00CEBF"/>
<path fill-rule="evenodd" clip-rule="evenodd" d="M11.653 7.83192C11.8964 7.81989 12.1396 7.86001 12.3664 7.94969C12.5933 8.03937 12.7986 8.1766 12.9686 8.35235C13.1386 8.5281 13.2694 8.73836 13.352 8.96914C13.4347 9.19993 13.4672 9.44582 13.4475 9.69033C13.432 9.88132 13.2662 10.0235 13.077 10.0079C12.8879 9.99233 12.747 9.82487 12.7625 9.63388C12.7742 9.48858 12.7549 9.34241 12.7057 9.20508C12.6565 9.06774 12.5786 8.94229 12.4769 8.83719C12.3752 8.73207 12.2522 8.64973 12.1158 8.59583C11.9795 8.54193 11.8332 8.51776 11.6866 8.525C11.4971 8.53437 11.3359 8.38682 11.3266 8.19543C11.3173 8.00404 11.4635 7.84129 11.653 7.83192Z" fill="white"/>
<path fill-rule="evenodd" clip-rule="evenodd" d="M10.9923 6.88177C10.997 6.69021 11.1547 6.53879 11.3444 6.54357C12.2718 6.56691 13.1545 6.94954 13.8068 7.61185C13.8102 7.61529 13.8135 7.6188 13.8168 7.62237C14.1166 7.95347 14.3476 8.34134 14.4961 8.76332C14.6446 9.18531 14.7075 9.63283 14.6812 10.0796C14.6699 10.2709 14.5072 10.4167 14.3177 10.4053C14.1283 10.3939 13.9838 10.2296 13.9951 10.0383C14.016 9.68452 13.9662 9.33003 13.8485 8.99563C13.7316 8.66349 13.5501 8.3577 13.3144 8.096C12.7879 7.56414 12.076 7.25611 11.3273 7.23726C11.1375 7.23249 10.9876 7.07333 10.9923 6.88177Z" fill="white"/>
<path fill-rule="evenodd" clip-rule="evenodd" d="M10.878 5.29569C11.5425 5.28073 12.2033 5.39918 12.8215 5.64414C13.4398 5.8891 14.0029 6.25565 14.4778 6.72231L14.4842 6.72856L14.4841 6.72865C14.9764 7.23806 15.3597 7.84301 15.6105 8.50647C15.8612 9.16993 15.974 9.8778 15.9419 10.5866C15.9333 10.7781 15.7726 10.9261 15.583 10.9174C15.3934 10.9086 15.2467 10.7464 15.2554 10.555C15.2832 9.94133 15.1855 9.32845 14.9683 8.75386C14.7517 8.18066 14.4207 7.65752 13.9953 7.21645C13.5868 6.81587 13.1024 6.50087 12.5705 6.29009C12.0371 6.07876 11.4668 5.97652 10.8933 5.98943C10.7036 5.99371 10.5463 5.84187 10.5421 5.6503C10.5378 5.45873 10.6882 5.29997 10.878 5.29569Z" fill="white"/>
<path d="M11.7288 12.8822C11.824 12.8893 11.9195 12.8755 12.0088 12.8417C12.098 12.808 12.1788 12.755 12.2455 12.6867L12.6014 12.2381C12.7233 12.1038 12.8886 12.0169 13.0682 11.9927C13.2477 11.9685 13.4301 12.0086 13.5831 12.1059C13.8876 12.2819 14.1827 12.4738 14.4671 12.6809C14.7369 12.8822 15.2823 13.3365 15.2823 13.3423C15.4107 13.4463 15.4964 13.5942 15.5229 13.7576C15.5494 13.921 15.5148 14.0884 15.4258 14.2278C15.2304 14.5678 14.9824 14.8745 14.691 15.1364C14.4807 15.3277 14.2194 15.4536 13.939 15.4987C13.9029 15.5049 13.866 15.5049 13.8299 15.4987C13.7229 15.5003 13.6163 15.4848 13.5142 15.4527C12.7987 15.2049 12.1101 14.8851 11.459 14.4981C10.853 14.1651 10.2768 13.7803 9.73686 13.348C9.46558 13.133 9.20683 12.9026 8.96188 12.6579H8.93317C8.69039 12.4092 8.46047 12.1481 8.2443 11.8759C7.81472 11.3335 7.4307 10.7565 7.09618 10.1507C6.70976 9.49937 6.3923 8.80939 6.14899 8.09199C6.11507 7.98801 6.09764 7.87935 6.09732 7.76996C6.09386 7.73362 6.09386 7.69704 6.09732 7.6607C6.14148 7.38118 6.26733 7.12104 6.45898 6.91313C6.6798 6.57815 6.95312 6.28105 7.2684 6.03329C7.4085 5.94374 7.57657 5.90891 7.74063 5.93542C7.9047 5.96192 8.05331 6.04793 8.15819 6.17705C8.15819 6.17705 8.61744 6.75211 8.81262 6.99363C9.0078 7.23516 9.24891 7.65495 9.38668 7.87922C9.48134 8.03465 9.51935 8.21811 9.49423 8.39843C9.46912 8.57875 9.38243 8.74479 9.24891 8.86831L8.80114 9.2191C8.73278 9.28701 8.67993 9.36895 8.64623 9.4593C8.61254 9.54964 8.5988 9.64623 8.60596 9.7424C8.8247 10.4847 9.22485 11.1605 9.77015 11.7088C10.3154 12.2571 10.9887 12.6604 11.7288 12.8822Z" fill="white"/>
</svg>
