<svg width="22" height="22" viewBox="0 0 22 22" fill="none" xmlns="http://www.w3.org/2000/svg">
<circle cx="11.5" cy="11.5" r="7.5" fill="#00CEBF"/>
<path d="M4.5 18.5L5.5 16V15.5L8.5 17.5L4.5 18.5Z" fill="#00CEBF"/>
<path d="M3 20L4.20524 15.6388C3.46451 14.3594 3.07544 12.9083 3.07719 11.4317C3.06861 6.77867 6.86493 3 11.53 3C13.7937 3 15.9196 3.87386 17.5209 5.46789C18.3099 6.24926 18.9353 7.17874 19.3608 8.20246C19.7864 9.22618 20.0036 10.3238 20 11.4317C20 16.0757 16.2036 19.8544 11.5386 19.8544C10.1184 19.8544 8.73257 19.5028 7.49303 18.8263L3 20ZM7.6913 17.3096L7.94909 17.4638C9.03342 18.1025 10.2701 18.4399 11.53 18.4406C15.4035 18.4406 18.5626 15.2962 18.5626 11.4397C18.5626 9.57199 17.8311 7.80721 16.5053 6.48789C15.8534 5.8352 15.0781 5.31741 14.2242 4.96436C13.3703 4.61131 12.4546 4.42997 11.53 4.43081C7.64791 4.43081 4.48927 7.57569 4.48927 11.4317C4.48927 12.751 4.85906 14.0452 5.56485 15.1591L5.72831 15.4248L5.01394 18.0122L7.6913 17.3096Z" fill="#00CEBF"/>
<path fill-rule="evenodd" clip-rule="evenodd" d="M9.41771 7.90159C9.26283 7.55003 9.0908 7.5415 8.9445 7.5415C8.81535 7.53296 8.67711 7.53296 8.53081 7.53296C8.39359 7.53296 8.16102 7.58419 7.96275 7.79863C7.76499 8.01258 7.22266 8.51831 7.22266 9.55488C7.22266 10.592 7.98041 11.5944 8.08332 11.7315C8.18675 11.8686 9.54636 14.0618 11.6985 14.9105C13.4895 15.6131 13.8507 15.476 14.2377 15.4328C14.6251 15.3901 15.4858 14.9276 15.6669 14.4304C15.8384 13.9422 15.8384 13.5138 15.7875 13.428C15.7355 13.3426 15.5892 13.2909 15.3829 13.1794C15.1674 13.0769 14.1347 12.5626 13.9365 12.4938C13.7387 12.4255 13.601 12.3914 13.4633 12.5968C13.3255 12.8112 12.9209 13.2823 12.7923 13.4194C12.6712 13.5565 12.542 13.5736 12.3357 13.4707C12.1203 13.3682 11.4402 13.1452 10.6315 12.4255C10.0029 11.8681 9.58117 11.1745 9.45202 10.9691C9.33144 10.7547 9.43487 10.6432 9.54686 10.5402C9.64171 10.4463 9.76178 10.2921 9.8652 10.1721C9.96862 10.0516 10.0029 9.95766 10.0806 9.82055C10.1492 9.68345 10.1149 9.55488 10.0635 9.45243C10.0115 9.35801 9.6069 8.32094 9.41771 7.90108V7.90159Z" fill="white"/>
</svg>
