<svg width="22" height="22" viewBox="0 0 22 22" fill="none" xmlns="http://www.w3.org/2000/svg">
<path fill-rule="evenodd" clip-rule="evenodd" d="M10.8846 3.0055C9.59939 3.13058 8.63023 3.40792 7.57908 3.95135C5.97439 4.781 4.67862 6.1012 3.87746 7.72285C3.56966 8.34588 3.4246 8.72777 3.26373 9.33877C3.06091 10.1089 3.00186 10.577 3.00003 11.429C2.99913 11.8532 3.01664 12.3136 3.04051 12.4927C3.22199 13.8546 3.64971 15.0283 4.36507 16.1272L4.6035 16.4934L4.07385 18.0548C3.78253 18.9135 3.54879 19.6207 3.55441 19.6264C3.56007 19.632 4.28868 19.4053 5.17356 19.1227C6.05847 18.84 6.79429 18.6087 6.80877 18.6087C6.82325 18.6087 6.95986 18.6862 7.11234 18.7808C7.26483 18.8755 7.58431 19.0459 7.82231 19.1597C9.97439 20.1882 12.4345 20.2762 14.6381 19.4036C17.1349 18.4148 19.0526 16.2518 19.7371 13.6522C19.9468 12.856 20 12.4196 20 11.4955C20 10.5715 19.9468 10.135 19.7371 9.33877C18.9341 6.28917 16.4864 3.91868 13.3977 3.19938C12.8788 3.07852 12.3388 3.0173 11.6835 3.00503C11.3174 2.99815 10.9579 2.99835 10.8846 3.0055ZM8.85455 6.94977C8.90967 6.97832 8.98689 7.05926 9.0262 7.12959C9.12543 7.30722 9.93465 9.25348 9.95822 9.37121C9.98837 9.52182 9.84088 9.77786 9.51002 10.1493C9.16474 10.5369 9.09054 10.6614 9.12127 10.8012C9.17709 11.0548 9.9469 12.0743 10.4212 12.5226C11.1572 13.2183 12.2696 13.879 12.7653 13.9147C13.0202 13.933 13.1131 13.861 13.503 13.3428C13.6798 13.1077 13.8684 12.8715 13.9221 12.8179C14.0505 12.6897 14.2411 12.6625 14.4548 12.7419C14.729 12.8439 16.4051 13.6589 16.5228 13.7476L16.6355 13.8325L16.6169 14.1847C16.5691 15.0888 16.2515 15.5583 15.4116 15.9666C14.613 16.3547 13.9879 16.344 12.7641 15.9216C11.1222 15.3549 10.2507 14.8136 9.06981 13.627C8.47891 13.0333 8.059 12.5313 7.57872 11.8445C6.78731 10.7128 6.4838 9.83896 6.57414 8.95203C6.64657 8.24091 6.89542 7.71597 7.39801 7.21412C7.64113 6.97131 7.95928 6.87136 8.4381 6.88731C8.64125 6.89406 8.79017 6.9164 8.85455 6.94977Z" fill="#C4C4C4"/>
</svg>
