<svg width="22" height="22" viewBox="0 0 22 22" fill="none" xmlns="http://www.w3.org/2000/svg">
<path d="M0 22L1.55972 16.356C0.601134 14.7004 0.0976275 12.8226 0.09989 10.9116C0.0887911 4.89004 5.00168 0 11.0388 0C13.9683 0 16.7195 1.13087 18.7917 3.19374C19.8128 4.20493 20.6221 5.40778 21.1728 6.73259C21.7235 8.05741 22.0047 9.47785 21.9999 10.9116C21.9999 16.9215 17.0871 21.8115 11.0499 21.8115C9.21207 21.8115 7.41862 21.3566 5.81451 20.4811L0 22ZM6.07109 18.5183L6.40471 18.7179C7.80795 19.5444 9.40831 19.981 11.0388 19.982C16.0516 19.982 20.1399 15.9128 20.1399 10.922C20.1399 8.50493 19.1932 6.22109 17.4775 4.51374C16.6338 3.66908 15.6305 2.999 14.5254 2.54211C13.4204 2.08522 12.2354 1.85056 11.0388 1.85164C6.01494 1.85164 1.92729 5.92148 1.92729 10.9116C1.92729 12.619 2.40585 14.2938 3.31922 15.7354L3.53075 16.0792L2.60628 19.4276L6.07044 18.5183H6.07109Z" fill="url(#paint0_linear_1019_698)"/>
<path fill-rule="evenodd" clip-rule="evenodd" d="M8.3055 6.34301C8.10507 5.88806 7.88244 5.87702 7.69311 5.87702C7.52597 5.86597 7.34708 5.86597 7.15775 5.86597C6.98017 5.86597 6.67919 5.93226 6.42261 6.20978C6.16668 6.48665 5.46484 7.14112 5.46484 8.48257C5.46484 9.82467 6.44546 11.1219 6.57865 11.2993C6.71249 11.4768 8.47199 14.315 11.2572 15.4134C13.5749 16.3226 14.0423 16.1452 14.5431 16.0893C15.0445 16.0341 16.1583 15.4355 16.3927 14.7921C16.6146 14.1603 16.6146 13.6059 16.5487 13.4948C16.4815 13.3843 16.2921 13.3174 16.0251 13.1731C15.7463 13.0405 14.4099 12.375 14.1533 12.2859C13.8974 12.1975 13.7191 12.1534 13.5409 12.4192C13.3627 12.6967 12.8391 13.3063 12.6726 13.4838C12.5159 13.6612 12.3488 13.6833 12.0817 13.55C11.803 13.4175 10.9229 13.1289 9.87632 12.1975C9.06284 11.4761 8.51704 10.5786 8.3499 10.3128C8.19386 10.0352 8.3277 9.89096 8.47264 9.75772C8.59538 9.63619 8.75077 9.43666 8.8846 9.28133C9.01844 9.12535 9.06284 9.00381 9.16338 8.82638C9.25217 8.64895 9.20778 8.48257 9.14118 8.34998C9.07394 8.2278 8.55033 6.8857 8.3055 6.34236V6.34301Z" fill="white"/>
<defs>
<linearGradient id="paint0_linear_1019_698" x1="10.9977" y1="22.0026" x2="10.9977" y2="0.00324931" gradientUnits="userSpaceOnUse">
<stop stop-color="#F9F9F9"/>
<stop offset="1" stop-color="white"/>
</linearGradient>
</defs>
</svg>
