<svg width="26" height="26" viewBox="0 0 26 26" fill="none" xmlns="http://www.w3.org/2000/svg">
<path fill-rule="evenodd" clip-rule="evenodd" d="M4.75254 1.10566C4.57562 1.16044 4.32559 1.26976 4.19693 1.34854C3.88789 1.53789 3.44942 1.99576 3.29145 2.29409C2.99207 2.85959 3.00002 2.56769 3.00002 13.0032C3.00002 23.4433 2.99189 23.1465 3.29251 23.7143C3.45597 24.023 3.93702 24.5137 4.24874 24.6898C4.84196 25.0247 4.39431 25.0094 13.1191 24.9931L21.0992 24.9782L21.4394 24.846C21.8572 24.6836 22.4442 24.1712 22.6695 23.7723C23.0055 23.1774 22.9979 23.3699 22.999 15.4556L23 8.1871L19.2722 4.59352L15.5443 1L10.3093 1.00304C5.46945 1.0058 5.04994 1.01358 4.75254 1.10566ZM17.4141 6.40989L20.5124 9.39661H17.3698H14.2272V6.40989C14.2272 4.7672 14.2471 3.42318 14.2715 3.42318C14.2958 3.42318 15.71 4.7672 17.4141 6.40989Z" fill="#00CEBF"/>
</svg>
