<svg width="18" height="23" viewBox="0 0 18 23" fill="none" xmlns="http://www.w3.org/2000/svg">
<path d="M9 10.925C8.14752 10.925 7.32995 10.6221 6.72716 10.0829C6.12436 9.54377 5.78571 8.8125 5.78571 8.05C5.78571 7.2875 6.12436 6.55623 6.72716 6.01707C7.32995 5.4779 8.14752 5.175 9 5.175C9.85248 5.175 10.67 5.4779 11.2728 6.01707C11.8756 6.55623 12.2143 7.2875 12.2143 8.05C12.2143 8.42755 12.1311 8.8014 11.9696 9.15022C11.8081 9.49903 11.5713 9.81596 11.2728 10.0829C10.9744 10.3499 10.62 10.5617 10.2301 10.7062C9.84008 10.8506 9.42211 10.925 9 10.925ZM9 0C6.61305 0 4.32387 0.848122 2.63604 2.35779C0.948211 3.86746 0 5.91501 0 8.05C0 14.0875 9 23 9 23C9 23 18 14.0875 18 8.05C18 5.91501 17.0518 3.86746 15.364 2.35779C13.6761 0.848122 11.3869 0 9 0Z" fill="#29C1B6"/>
</svg>
