<svg width="260" height="48" viewBox="0 0 260 48" fill="none" xmlns="http://www.w3.org/2000/svg">
<path d="M21.603 27.8941H17.6614C17.3364 27.8941 17.1738 27.7323 17.1738 27.4086V16.4844H5.79609V27.4086C5.79609 27.7323 5.63355 27.8941 5.30847 27.8941H1.3669C1.06892 27.8941 0.919922 27.7323 0.919922 27.4086V1.87845C0.919922 1.55477 1.06892 1.39293 1.3669 1.39293H5.30847C5.63355 1.39293 5.79609 1.55477 5.79609 1.87845V12.2766H17.1738V1.87845C17.1738 1.55477 17.3364 1.39293 17.6614 1.39293H21.603C21.901 1.39293 22.05 1.55477 22.05 1.87845V27.4086C22.05 27.7323 21.901 27.8941 21.603 27.8941Z" fill="#464848"/>
<path d="M43.3235 27.8941H39.707C39.382 27.8941 39.2194 27.7323 39.2194 27.4086V19.3166C39.2194 18.4535 39.2601 17.5499 39.3413 16.6058L39.5851 14.421H39.5039L37.1471 18.467L31.3769 27.6109C31.2957 27.7997 31.1331 27.8941 30.8893 27.8941H27.1915C26.8936 27.8941 26.7446 27.7323 26.7446 27.4086V8.4734C26.7446 8.14972 26.8936 7.98788 27.1915 7.98788H30.808C31.1331 7.98788 31.2957 8.14972 31.2957 8.4734V16.8081C31.2957 17.6982 31.255 18.6018 31.1738 19.5189L30.9299 21.7038H31.0518L31.2957 21.2587C31.4853 20.8811 31.7697 20.3686 32.149 19.7212C32.5282 19.0469 32.9888 18.2242 33.5306 17.2532L39.1382 8.35202C39.2465 8.10926 39.4497 7.98788 39.7477 7.98788H43.3235C43.6486 7.98788 43.8112 8.14972 43.8112 8.4734V27.4086C43.8112 27.7323 43.6486 27.8941 43.3235 27.8941Z" fill="#464848"/>
<path d="M74.9901 27.8941H70.5609C70.29 27.8941 70.1003 27.7997 69.992 27.6109L65.4815 19.2762H63.206V27.4086C63.206 27.5165 63.1518 27.6244 63.0434 27.7323C62.9622 27.8402 62.8538 27.8941 62.7184 27.8941H58.9393C58.831 27.8941 58.7226 27.8402 58.6143 27.7323C58.5059 27.6244 58.4517 27.5165 58.4517 27.4086V19.2762H56.0949L51.5438 27.6109C51.4625 27.7997 51.2729 27.8941 50.9749 27.8941H46.627C46.4374 27.8941 46.3019 27.7862 46.2207 27.5704L52.194 17.0509L46.9521 8.55432C46.9521 8.52734 46.9385 8.48688 46.9115 8.43294C46.8844 8.37899 46.8708 8.32505 46.8708 8.2711C46.8708 8.08229 46.9656 7.98788 47.1553 7.98788H51.5845C51.8824 7.98788 52.0721 8.08229 52.1533 8.2711L56.2168 15.5134H58.4517V8.4734C58.4517 8.33853 58.5059 8.23064 58.6143 8.14972C58.7226 8.04183 58.831 7.98788 58.9393 7.98788H62.7184C63.0434 7.98788 63.206 8.14972 63.206 8.4734V15.5134H65.4409L69.545 8.2711C69.6534 8.08229 69.843 7.98788 70.1139 7.98788H74.3805C74.5973 7.98788 74.7192 8.02834 74.7462 8.10926C74.7733 8.19018 74.7869 8.25761 74.7869 8.31156C74.7869 8.33853 73.0125 11.2516 69.4637 17.0509C73.3918 23.9291 75.3693 27.4356 75.3964 27.5704C75.3964 27.7592 75.261 27.8671 74.9901 27.8941Z" fill="#464848"/>
<path d="M88.1824 28.3796C84.7149 28.3796 82.0736 27.53 80.2586 25.8307C78.4436 24.1314 77.5361 21.6498 77.5361 18.3861V10.9414C77.5361 7.62374 78.4436 5.12872 80.2586 3.45638C82.0736 1.75707 84.7149 0.90741 88.1824 0.90741C89.7807 0.90741 91.23 1.09622 92.5303 1.47385C93.8306 1.8245 94.9413 2.35048 95.8623 3.05178C96.8105 3.72611 97.5419 4.56228 98.0566 5.56029C98.5713 6.5583 98.8287 7.67769 98.8287 8.91846C98.8287 9.51187 98.8016 9.9839 98.7474 10.3345C98.7203 10.6582 98.5578 10.8201 98.2598 10.8201H94.3182C94.1557 10.8201 94.0338 10.7796 93.9525 10.6987C93.8983 10.6178 93.8712 10.429 93.8712 10.1323C93.8712 8.5678 93.4243 7.35401 92.5303 6.49087C91.6363 5.60075 90.2141 5.15569 88.2636 5.15569C86.3674 5.15569 84.9181 5.6547 83.9157 6.65271C82.9134 7.62374 82.4122 9.0803 82.4122 11.0224V18.2647C82.4122 20.2067 82.9134 21.6768 83.9157 22.6748C84.9181 23.6458 86.3674 24.1314 88.2636 24.1314C90.1328 24.1314 91.5415 23.7133 92.4897 22.8771C93.4378 22.0409 93.9119 20.9215 93.9119 19.5189L93.8712 18.8716C93.8712 18.6018 93.9931 18.467 94.237 18.467H98.2192C98.5171 18.467 98.6932 18.6558 98.7474 19.0334C98.7745 19.1413 98.788 19.2762 98.788 19.438C98.788 19.5729 98.788 19.7482 98.788 19.964C98.788 21.2587 98.5307 22.432 98.016 23.484C97.5284 24.509 96.824 25.3856 95.903 26.1139C95.009 26.8422 93.8983 27.4086 92.5709 27.8132C91.2706 28.1908 89.8078 28.3796 88.1824 28.3796Z" fill="#464848"/>
<path d="M111.306 27.8941H107.487C107.162 27.8941 106.999 27.7323 106.999 27.4086V11.9934H101.473C101.175 11.9934 101.026 11.8316 101.026 11.5079V8.4734C101.026 8.14972 101.175 7.98788 101.473 7.98788H117.28C117.605 7.98788 117.767 8.14972 117.767 8.4734V11.5079C117.767 11.8316 117.605 11.9934 117.28 11.9934H111.794V27.4086C111.794 27.7323 111.631 27.8941 111.306 27.8941Z" fill="#464848"/>
<path d="M128.569 28.3796C125.779 28.3796 123.585 27.7188 121.986 26.3971C120.388 25.0754 119.589 22.985 119.589 20.1258V15.7562C119.589 12.924 120.388 10.847 121.986 9.52535C123.585 8.17669 125.779 7.50236 128.569 7.50236C131.359 7.50236 133.54 8.17669 135.111 9.52535C136.71 10.847 137.509 12.924 137.509 15.7562V20.1258C137.509 22.958 136.723 25.0484 135.152 26.3971C133.608 27.7188 131.414 28.3796 128.569 28.3796ZM128.569 24.2932C131.332 24.2932 132.714 22.7827 132.714 19.7617V16.2012C132.714 14.5828 132.375 13.4095 131.698 12.6812C131.021 11.9529 129.978 11.5888 128.569 11.5888C125.779 11.5888 124.384 13.0723 124.384 16.0394V19.6808C124.384 21.2992 124.709 22.4725 125.359 23.2008C126.036 23.9291 127.106 24.2932 128.569 24.2932Z" fill="#464848"/>
<path d="M162.067 27.8941H158.532C158.234 27.8941 158.085 27.7323 158.085 27.4086L158.004 19.6403C158.004 19.2357 158.085 17.6308 158.247 14.8256H158.126C157.34 16.5789 156.703 17.8466 156.216 18.6288L152.355 25.507C152.22 25.6688 152.057 25.7497 151.868 25.7497C151.651 25.7497 151.489 25.6688 151.38 25.507L147.52 18.6288C147.33 18.3051 147.073 17.8331 146.748 17.2127C146.45 16.5654 146.071 15.7697 145.61 14.8256H145.488C145.651 16.8216 145.732 18.4265 145.732 19.6403L145.651 27.4086C145.651 27.7323 145.502 27.8941 145.204 27.8941H141.668C141.343 27.8941 141.181 27.7323 141.181 27.4086L141.547 8.4734C141.547 8.14972 141.696 7.98788 141.994 7.98788H145.935C146.152 7.98788 146.328 8.10926 146.463 8.35202L151.868 18.993L157.272 8.35202C157.381 8.10926 157.557 7.98788 157.8 7.98788H161.742C162.067 7.98788 162.23 8.14972 162.23 8.4734L162.555 27.4086C162.555 27.7323 162.392 27.8941 162.067 27.8941Z" fill="#464848"/>
<path d="M187.553 27.8941H183.611C183.286 27.8941 183.124 27.7323 183.124 27.4086V5.68167H171.827V27.4086C171.827 27.7323 171.665 27.8941 171.339 27.8941H167.398C167.1 27.8941 166.951 27.7323 166.951 27.4086V1.87845C166.951 1.55477 167.1 1.39293 167.398 1.39293H187.553C187.851 1.39293 188 1.55477 188 1.87845V27.4086C188 27.7323 187.851 27.8941 187.553 27.8941Z" fill="#464848"/>
<path d="M192.087 28.3796C191.599 28.3796 191.044 28.3257 190.421 28.2178C190.15 28.1908 190.014 28.0155 190.014 27.6918V24.7382C190.014 24.4685 190.123 24.3336 190.339 24.3336L191.437 24.3741C192.087 24.3741 192.547 24.0909 192.818 23.5245C193.116 22.958 193.319 21.9061 193.428 20.3686L194.403 8.4734C194.43 8.14972 194.592 7.98788 194.89 7.98788H208.341C208.666 7.98788 208.828 8.14972 208.828 8.4734V27.4086C208.828 27.5165 208.774 27.6244 208.666 27.7323C208.584 27.8402 208.476 27.8941 208.341 27.8941H204.48C204.209 27.8941 204.06 27.7323 204.033 27.4086V11.9934H198.669L197.938 21.0564C197.721 23.6998 197.166 25.5879 196.272 26.7208C195.405 27.8267 194.01 28.3796 192.087 28.3796Z" fill="#464848"/>
<path d="M229.952 28.3796C227.27 28.3796 225.143 27.7053 223.572 26.3566C222.028 25.008 221.256 22.958 221.256 20.2067V19.8021H217.802V27.4086C217.802 27.7323 217.639 27.8941 217.314 27.8941H213.494C213.169 27.8941 213.007 27.7323 213.007 27.4086V8.4734C213.007 8.14972 213.169 7.98788 213.494 7.98788H217.314C217.639 7.98788 217.802 8.14972 217.802 8.4734V15.8775H221.256C221.256 13.0993 222.001 11.0089 223.491 9.60627C225.008 8.20367 227.161 7.50236 229.952 7.50236C232.579 7.50236 234.679 8.17669 236.25 9.52535C237.848 10.847 238.647 12.897 238.647 15.6752V20.2067C238.647 22.985 237.848 25.0484 236.25 26.3971C234.679 27.7188 232.579 28.3796 229.952 28.3796ZM229.952 24.2527C231.333 24.2527 232.322 23.8751 232.918 23.1199C233.541 22.3646 233.853 21.2452 233.853 19.7617V16.1203C233.853 14.6368 233.541 13.5174 232.918 12.7621C232.322 12.0069 231.333 11.6293 229.952 11.6293C228.57 11.6293 227.568 12.0069 226.945 12.7621C226.349 13.5174 226.051 14.6368 226.051 16.1203V19.7617C226.051 21.2452 226.349 22.3646 226.945 23.1199C227.568 23.8751 228.57 24.2527 229.952 24.2527Z" fill="#464848"/>
<path d="M250.71 28.3796C247.838 28.3796 245.63 27.6783 244.086 26.2757C242.569 24.8461 241.811 22.8231 241.811 20.2067V15.6348C241.811 12.9644 242.583 10.9414 244.127 9.56581C245.671 8.19018 247.879 7.50236 250.75 7.50236C252.105 7.50236 253.297 7.67769 254.326 8.02834C255.355 8.35202 256.222 8.79708 256.927 9.36351C257.631 9.92995 258.159 10.6043 258.511 11.3865C258.891 12.1418 259.08 12.9644 259.08 13.8546V14.0973C259.08 14.6638 258.918 14.947 258.593 14.947H254.936C254.665 14.947 254.516 14.7312 254.489 14.2996C254.489 13.4365 254.15 12.7756 253.473 12.3171C252.823 11.8316 251.929 11.5888 250.791 11.5888C249.382 11.5888 248.326 11.9395 247.621 12.6408C246.944 13.3421 246.605 14.5019 246.605 16.1203V19.7617C246.605 21.2992 246.944 22.432 247.621 23.1603C248.299 23.8886 249.342 24.2527 250.75 24.2527C251.969 24.2527 252.89 24.01 253.513 23.5245C254.136 23.0389 254.448 22.3916 254.448 21.5824C254.448 21.1778 254.597 20.9755 254.895 20.9755H258.552C258.877 20.9755 259.04 21.1238 259.04 21.4205V21.5824C259.04 23.6863 258.335 25.3451 256.927 26.5589C255.545 27.7727 253.473 28.3796 250.71 28.3796Z" fill="#464848"/>
<path d="M3.85249 44.0412C4.12075 44.0412 4.36869 43.9845 4.5963 43.8712C4.82392 43.7579 5.01089 43.6026 5.15721 43.4054C5.30354 43.204 5.38686 42.9752 5.40718 42.7193H6.48022C6.4599 43.1221 6.3278 43.4977 6.08393 43.846C5.84412 44.1901 5.52912 44.4692 5.13892 44.6832C4.74873 44.8931 4.31992 44.998 3.85249 44.998C3.35662 44.998 2.92374 44.9078 2.55387 44.7273C2.18806 44.5469 1.88322 44.2993 1.63935 43.9845C1.39954 43.6698 1.21867 43.3089 1.09673 42.9018C0.978858 42.4905 0.919922 42.0562 0.919922 41.5988V41.3344C0.919922 40.877 0.978858 40.4447 1.09673 40.0377C1.21867 39.6264 1.39954 39.2634 1.63935 38.9486C1.88322 38.6339 2.18806 38.3863 2.55387 38.2059C2.92374 38.0254 3.35662 37.9352 3.85249 37.9352C4.36869 37.9352 4.81985 38.0443 5.20599 38.2625C5.59212 38.4765 5.89493 38.7703 6.11441 39.1438C6.33796 39.5131 6.4599 39.9327 6.48022 40.4028H5.40718C5.38686 40.1216 5.30963 39.8677 5.1755 39.6411C5.04544 39.4145 4.8666 39.234 4.63898 39.0997C4.41543 38.9612 4.15327 38.892 3.85249 38.892C3.50701 38.892 3.21639 38.9633 2.98065 39.106C2.74897 39.2445 2.56403 39.4334 2.42584 39.6726C2.29171 39.9076 2.19416 40.1698 2.13319 40.4594C2.07629 40.7448 2.04783 41.0364 2.04783 41.3344V41.5988C2.04783 41.8967 2.07629 42.1905 2.13319 42.48C2.19009 42.7696 2.28561 43.0319 2.41974 43.2669C2.55793 43.5019 2.74287 43.6908 2.97455 43.8334C3.21029 43.9719 3.50294 44.0412 3.85249 44.0412Z" fill="#464848"/>
<path d="M7.44962 41.5421V41.3973C7.44962 40.9063 7.51871 40.451 7.65691 40.0314C7.7951 39.6075 7.99427 39.2403 8.2544 38.9298C8.51453 38.615 8.82953 38.3716 9.1994 38.1996C9.56928 38.0233 9.98386 37.9352 10.4432 37.9352C10.9065 37.9352 11.3231 38.0233 11.693 38.1996C12.0669 38.3716 12.384 38.615 12.6441 38.9298C12.9083 39.2403 13.1095 39.6075 13.2477 40.0314C13.3859 40.451 13.455 40.9063 13.455 41.3973V41.5421C13.455 42.0331 13.3859 42.4884 13.2477 42.9081C13.1095 43.3278 12.9083 43.695 12.6441 44.0097C12.384 44.3202 12.069 44.5636 11.6991 44.7399C11.3333 44.912 10.9187 44.998 10.4553 44.998C9.99199 44.998 9.57537 44.912 9.2055 44.7399C8.83563 44.5636 8.51859 44.3202 8.2544 44.0097C7.99427 43.695 7.7951 43.3278 7.65691 42.9081C7.51871 42.4884 7.44962 42.0331 7.44962 41.5421ZM8.57753 41.3973V41.5421C8.57753 41.882 8.61614 42.2031 8.69337 42.5052C8.77059 42.8032 8.88643 43.0676 9.04089 43.2984C9.1994 43.5292 9.39653 43.7117 9.63228 43.846C9.86802 43.9761 10.1424 44.0412 10.4553 44.0412C10.7643 44.0412 11.0345 43.9761 11.2662 43.846C11.502 43.7117 11.6971 43.5292 11.8515 43.2984C12.006 43.0676 12.1218 42.8032 12.199 42.5052C12.2803 42.2031 12.321 41.882 12.321 41.5421V41.3973C12.321 41.0616 12.2803 40.7448 12.199 40.4468C12.1218 40.1447 12.0039 39.8782 11.8454 39.6474C11.691 39.4124 11.4959 39.2277 11.2601 39.0934C11.0285 38.9591 10.7561 38.892 10.4432 38.892C10.1343 38.892 9.86193 38.9591 9.62618 39.0934C9.3945 39.2277 9.1994 39.4124 9.04089 39.6474C8.88643 39.8782 8.77059 40.1447 8.69337 40.4468C8.61614 40.7448 8.57753 41.0616 8.57753 41.3973Z" fill="#464848"/>
<path d="M17.9666 41.8757H15.8023L15.7901 40.9441H17.5581C17.9077 40.9441 18.1983 40.9084 18.43 40.8371C18.6657 40.7658 18.8425 40.6587 18.9604 40.5161C19.0783 40.3734 19.1372 40.1971 19.1372 39.9873C19.1372 39.8236 19.1027 39.6809 19.0336 39.5592C18.9685 39.4334 18.869 39.3305 18.7348 39.2508C18.6007 39.1669 18.4341 39.106 18.2349 39.0683C18.0398 39.0263 17.8101 39.0053 17.546 39.0053H16.101V44.8721H14.9731V38.0611H17.546C17.9646 38.0611 18.3406 38.0988 18.6739 38.1744C19.0112 38.2499 19.2978 38.3653 19.5335 38.5206C19.7733 38.6717 19.9562 38.8647 20.0822 39.0997C20.2082 39.3347 20.2712 39.6117 20.2712 39.9306C20.2712 40.1363 20.2306 40.3314 20.1493 40.5161C20.068 40.7007 19.9481 40.8644 19.7896 41.0071C19.6311 41.1497 19.436 41.2672 19.2043 41.3596C18.9726 41.4477 18.7064 41.5043 18.4056 41.5295L17.9666 41.8757ZM17.9666 44.8721H15.3938L15.9547 43.9279H17.9666C18.2796 43.9279 18.5397 43.888 18.747 43.8083C18.9543 43.7243 19.1088 43.6068 19.2104 43.4557C19.3161 43.3005 19.3689 43.1158 19.3689 42.9018C19.3689 42.6878 19.3161 42.5052 19.2104 42.3542C19.1088 42.1989 18.9543 42.0814 18.747 42.0016C18.5397 41.9177 18.2796 41.8757 17.9666 41.8757H16.2534L16.2656 40.9441H18.4056L18.8141 41.2966C19.1758 41.326 19.4827 41.4183 19.7347 41.5736C19.9867 41.7289 20.1777 41.9261 20.3078 42.1653C20.4379 42.4003 20.5029 42.6563 20.5029 42.9333C20.5029 43.2522 20.444 43.5334 20.3261 43.7768C20.2123 44.0202 20.0456 44.2237 19.8262 44.3874C19.6067 44.5469 19.3404 44.6686 19.0275 44.7525C18.7145 44.8322 18.3609 44.8721 17.9666 44.8721Z" fill="#464848"/>
<path d="M23.1428 39.3704V47.4907H22.0088V38.0611H23.0453L23.1428 39.3704ZM27.5874 41.4099V41.5421C27.5874 42.0373 27.5305 42.4968 27.4167 42.9207C27.3029 43.3403 27.1363 43.7054 26.9168 44.016C26.7013 44.3265 26.4351 44.5678 26.1181 44.7399C25.801 44.912 25.4373 44.998 25.0268 44.998C24.6081 44.998 24.2382 44.9266 23.9171 44.784C23.596 44.6413 23.3237 44.4335 23.1002 44.1608C22.8766 43.888 22.6978 43.5607 22.5636 43.1788C22.4336 42.7969 22.3441 42.3667 22.2954 41.8883V41.1833C22.3441 40.6797 22.4356 40.2286 22.5697 39.8299C22.7039 39.4313 22.8807 39.0913 23.1002 38.8102C23.3237 38.5248 23.594 38.3087 23.911 38.1618C24.2281 38.0107 24.5939 37.9352 25.0085 37.9352C25.423 37.9352 25.7909 38.0191 26.112 38.187C26.4331 38.3506 26.7034 38.5856 26.9229 38.892C27.1423 39.1983 27.307 39.5655 27.4167 39.9936C27.5305 40.4174 27.5874 40.8896 27.5874 41.4099ZM26.4534 41.5421V41.4099C26.4534 41.07 26.4189 40.7511 26.3498 40.4531C26.2807 40.151 26.173 39.8866 26.0266 39.66C25.8844 39.4292 25.7015 39.2487 25.4779 39.1186C25.2544 38.9843 24.9881 38.9172 24.6792 38.9172C24.3947 38.9172 24.1468 38.9675 23.9354 39.0683C23.7281 39.169 23.5513 39.3054 23.405 39.4774C23.2587 39.6453 23.1388 39.8383 23.0453 40.0565C22.9559 40.2706 22.8888 40.493 22.8441 40.7238V42.3542C22.9254 42.6479 23.0392 42.9249 23.1855 43.1851C23.3318 43.4411 23.5269 43.6488 23.7708 43.8083C24.0147 43.9635 24.3216 44.0412 24.6914 44.0412C24.9963 44.0412 25.2584 43.9761 25.4779 43.846C25.7015 43.7117 25.8844 43.5292 26.0266 43.2984C26.173 43.0676 26.2807 42.8032 26.3498 42.5052C26.4189 42.2031 26.4534 41.882 26.4534 41.5421Z" fill="#464848"/>
<path d="M31.7637 44.998C31.3044 44.998 30.8878 44.9182 30.5139 44.7588C30.144 44.5951 29.8249 44.3664 29.5567 44.0726C29.2925 43.7789 29.0893 43.4306 28.947 43.0277C28.8047 42.6248 28.7336 42.1842 28.7336 41.7058V41.4414C28.7336 40.8875 28.8129 40.3944 28.9714 39.9621C29.1299 39.5257 29.3453 39.1564 29.6177 38.8542C29.89 38.5521 30.1989 38.3234 30.5444 38.1681C30.8899 38.0128 31.2475 37.9352 31.6174 37.9352C32.0889 37.9352 32.4954 38.0191 32.8368 38.187C33.1823 38.3548 33.4648 38.5898 33.6842 38.892C33.9037 39.19 34.0663 39.5425 34.172 39.9495C34.2777 40.3524 34.3305 40.793 34.3305 41.2714V41.7939H29.4043V40.8434H33.2026V40.7553C33.1863 40.4531 33.1254 40.1594 33.0197 39.874C32.9181 39.5886 32.7555 39.3536 32.5319 39.169C32.3084 38.9843 32.0035 38.892 31.6174 38.892C31.3613 38.892 31.1256 38.9486 30.9102 39.062C30.6948 39.1711 30.5098 39.3347 30.3554 39.553C30.2009 39.7712 30.081 40.0377 29.9957 40.3524C29.9103 40.6671 29.8676 41.0301 29.8676 41.4414V41.7058C29.8676 42.0289 29.9103 42.3332 29.9957 42.6185C30.0851 42.8997 30.2131 43.1473 30.3798 43.3613C30.5505 43.5753 30.7557 43.7432 30.9955 43.8649C31.2394 43.9866 31.5158 44.0475 31.8247 44.0475C32.223 44.0475 32.5604 43.9635 32.8368 43.7957C33.1132 43.6278 33.355 43.4033 33.5623 43.1221L34.2451 43.6824C34.1029 43.9048 33.922 44.1167 33.7025 44.3181C33.483 44.5196 33.2127 44.6832 32.8916 44.8091C32.5746 44.935 32.1986 44.998 31.7637 44.998Z" fill="#464848"/>
<path d="M39.4396 43.3236L41.6833 38.0611H42.7685L39.8298 44.8721H39.0494L36.123 38.0611H37.2082L39.4396 43.3236ZM36.879 38.0611V44.8721H35.7511V38.0611H36.879ZM41.9637 44.8721V38.0611H43.0977V44.8721H41.9637Z" fill="#464848"/>
<path d="M47.6521 44.998C47.1928 44.998 46.7761 44.9182 46.4022 44.7588C46.0323 44.5951 45.7133 44.3664 45.445 44.0726C45.1808 43.7789 44.9776 43.4306 44.8353 43.0277C44.6931 42.6248 44.6219 42.1842 44.6219 41.7058V41.4414C44.6219 40.8875 44.7012 40.3944 44.8597 39.9621C45.0182 39.5257 45.2336 39.1564 45.506 38.8542C45.7783 38.5521 46.0872 38.3234 46.4327 38.1681C46.7782 38.0128 47.1359 37.9352 47.5057 37.9352C47.9772 37.9352 48.3837 38.0191 48.7251 38.187C49.0706 38.3548 49.3531 38.5898 49.5726 38.892C49.792 39.19 49.9546 39.5425 50.0603 39.9495C50.166 40.3524 50.2188 40.793 50.2188 41.2714V41.7939H45.2926V40.8434H49.0909V40.7553C49.0746 40.4531 49.0137 40.1594 48.908 39.874C48.8064 39.5886 48.6438 39.3536 48.4203 39.169C48.1967 38.9843 47.8919 38.892 47.5057 38.892C47.2497 38.892 47.0139 38.9486 46.7985 39.062C46.5831 39.1711 46.3981 39.3347 46.2437 39.553C46.0892 39.7712 45.9693 40.0377 45.884 40.3524C45.7986 40.6671 45.7559 41.0301 45.7559 41.4414V41.7058C45.7559 42.0289 45.7986 42.3332 45.884 42.6185C45.9734 42.8997 46.1014 43.1473 46.2681 43.3613C46.4388 43.5753 46.644 43.7432 46.8839 43.8649C47.1277 43.9866 47.4041 44.0475 47.713 44.0475C48.1113 44.0475 48.4487 43.9635 48.7251 43.7957C49.0015 43.6278 49.2433 43.4033 49.4506 43.1221L50.1335 43.6824C49.9912 43.9048 49.8103 44.1167 49.5908 44.3181C49.3714 44.5196 49.1011 44.6832 48.78 44.8091C48.4629 44.935 48.087 44.998 47.6521 44.998Z" fill="#464848"/>
<path d="M56.0108 41.0134V41.9576H52.5234V41.0134H56.0108ZM52.7612 38.0611V44.8721H51.6333V38.0611H52.7612ZM56.9253 38.0611V44.8721H55.7913V38.0611H56.9253Z" fill="#464848"/>
<path d="M63.2172 41.0134V41.9576H59.7299V41.0134H63.2172ZM59.9676 38.0611V44.8721H58.8397V38.0611H59.9676ZM64.1318 38.0611V44.8721H62.9978V38.0611H64.1318Z" fill="#464848"/>
<path d="M69.8384 43.7075V40.2013C69.8384 39.9327 69.7855 39.6998 69.6799 39.5026C69.5783 39.3012 69.4238 39.1459 69.2165 39.0368C69.0092 38.9277 68.7531 38.8731 68.4483 38.8731C68.1638 38.8731 67.9138 38.9235 67.6984 39.0242C67.487 39.1249 67.3204 39.2571 67.1985 39.4208C67.0806 39.5844 67.0217 39.7607 67.0217 39.9495H65.8937C65.8937 39.7061 65.9547 39.4648 66.0766 39.2256C66.1986 38.9864 66.3734 38.7703 66.601 38.5773C66.8327 38.38 67.109 38.2247 67.4301 38.1114C67.7553 37.9939 68.117 37.9352 68.5154 37.9352C68.995 37.9352 69.4177 38.0191 69.7835 38.187C70.1534 38.3548 70.442 38.6087 70.6493 38.9486C70.8606 39.2844 70.9663 39.7061 70.9663 40.2139V43.3865C70.9663 43.6131 70.9846 43.8544 71.0212 44.1104C71.0618 44.3664 71.1207 44.5867 71.198 44.7714V44.8721H70.0213C69.9644 44.7378 69.9197 44.5594 69.8872 44.337C69.8546 44.1104 69.8384 43.9006 69.8384 43.7075ZM70.0335 40.7427L70.0457 41.561H68.9056C68.5845 41.561 68.2979 41.5883 68.0459 41.6428C67.7939 41.6932 67.5826 41.7708 67.4118 41.8757C67.2411 41.9807 67.1111 42.1129 67.0217 42.2723C66.9322 42.4276 66.8875 42.6101 66.8875 42.82C66.8875 43.034 66.9343 43.2291 67.0277 43.4054C67.1212 43.5816 67.2615 43.7222 67.4484 43.8271C67.6395 43.9279 67.8732 43.9782 68.1496 43.9782C68.4951 43.9782 68.7999 43.9027 69.0641 43.7516C69.3283 43.6005 69.5376 43.4159 69.6921 43.1977C69.8506 42.9794 69.9359 42.7675 69.9481 42.5619L70.4298 43.1221C70.4013 43.2984 70.3241 43.4935 70.1981 43.7075C70.0721 43.9216 69.9034 44.1272 69.6921 44.3244C69.4848 44.5175 69.2368 44.679 68.9482 44.8091C68.6637 44.935 68.3426 44.998 67.9849 44.998C67.5378 44.998 67.1456 44.9078 66.8083 44.7273C66.475 44.5469 66.2148 44.3055 66.0279 44.0034C65.845 43.697 65.7535 43.355 65.7535 42.9773C65.7535 42.6122 65.8226 42.2912 65.9608 42.0142C66.099 41.7331 66.2982 41.5002 66.5583 41.3155C66.8184 41.1267 67.1314 40.984 67.4972 40.8875C67.863 40.7909 68.2715 40.7427 68.7227 40.7427H70.0335Z" fill="#464848"/>
<path d="M74.0757 41.624H75.295L73.3867 44.8721H72.1674L74.0757 41.624ZM75.0207 38.0611H77.7764V44.8721H76.6485V39.0053H75.0207C74.6996 39.0053 74.4374 39.062 74.2342 39.1753C74.031 39.2844 73.8826 39.4271 73.7891 39.6033C73.6956 39.7796 73.6489 39.9621 73.6489 40.151C73.6489 40.3356 73.6916 40.514 73.7769 40.686C73.8623 40.8539 73.9964 40.9924 74.1793 41.1015C74.3622 41.2106 74.598 41.2651 74.8866 41.2651H76.9534V42.222H74.8866C74.5085 42.222 74.1732 42.1695 73.8806 42.0646C73.5879 41.9597 73.34 41.8149 73.1368 41.6302C72.9335 41.4414 72.7791 41.2211 72.6734 40.9693C72.5677 40.7133 72.5149 40.4363 72.5149 40.1384C72.5149 39.8404 72.5698 39.5655 72.6795 39.3137C72.7933 39.062 72.9559 38.8416 73.1672 38.6528C73.3827 38.4639 73.6448 38.3192 73.9537 38.2184C74.2667 38.1135 74.6224 38.0611 75.0207 38.0611Z" fill="#464848"/>
<path d="M85.3304 44.0412C85.5987 44.0412 85.8466 43.9845 86.0742 43.8712C86.3018 43.7579 86.4888 43.6026 86.6351 43.4054C86.7814 43.204 86.8648 42.9752 86.8851 42.7193H87.9581C87.9378 43.1221 87.8057 43.4977 87.5618 43.846C87.322 44.1901 87.007 44.4692 86.6168 44.6832C86.2266 44.8931 85.7978 44.998 85.3304 44.998C84.8345 44.998 84.4017 44.9078 84.0318 44.7273C83.666 44.5469 83.3611 44.2993 83.1173 43.9845C82.8775 43.6698 82.6966 43.3089 82.5746 42.9018C82.4568 42.4905 82.3978 42.0562 82.3978 41.5988V41.3344C82.3978 40.877 82.4568 40.4447 82.5746 40.0377C82.6966 39.6264 82.8775 39.2634 83.1173 38.9486C83.3611 38.6339 83.666 38.3863 84.0318 38.2059C84.4017 38.0254 84.8345 37.9352 85.3304 37.9352C85.8466 37.9352 86.2978 38.0443 86.6839 38.2625C87.07 38.4765 87.3728 38.7703 87.5923 39.1438C87.8159 39.5131 87.9378 39.9327 87.9581 40.4028H86.8851C86.8648 40.1216 86.7875 39.8677 86.6534 39.6411C86.5233 39.4145 86.3445 39.234 86.1169 39.0997C85.8933 38.9612 85.6312 38.892 85.3304 38.892C84.9849 38.892 84.6943 38.9633 84.4586 39.106C84.2269 39.2445 84.0419 39.4334 83.9037 39.6726C83.7696 39.9076 83.6721 40.1698 83.6111 40.4594C83.5542 40.7448 83.5257 41.0364 83.5257 41.3344V41.5988C83.5257 41.8967 83.5542 42.1905 83.6111 42.48C83.668 42.7696 83.7635 43.0319 83.8977 43.2669C84.0358 43.5019 84.2208 43.6908 84.4525 43.8334C84.6882 43.9719 84.9809 44.0412 85.3304 44.0412Z" fill="#464848"/>
<path d="M91.915 38.0611V44.8721H90.781V38.0611H91.915ZM94.1281 38.0611V39.0053H88.6105V38.0611H94.1281Z" fill="#464848"/>
<path d="M94.6829 41.5421V41.3973C94.6829 40.9063 94.752 40.451 94.8902 40.0314C95.0284 39.6075 95.2276 39.2403 95.4877 38.9298C95.7478 38.615 96.0628 38.3716 96.4327 38.1996C96.8026 38.0233 97.2172 37.9352 97.6765 37.9352C98.1398 37.9352 98.5564 38.0233 98.9263 38.1996C99.3003 38.3716 99.6173 38.615 99.8774 38.9298C100.142 39.2403 100.343 39.6075 100.481 40.0314C100.619 40.451 100.688 40.9063 100.688 41.3973V41.5421C100.688 42.0331 100.619 42.4884 100.481 42.9081C100.343 43.3278 100.142 43.695 99.8774 44.0097C99.6173 44.3202 99.3023 44.5636 98.9324 44.7399C98.5666 44.912 98.152 44.998 97.6887 44.998C97.2253 44.998 96.8087 44.912 96.4388 44.7399C96.0689 44.5636 95.7519 44.3202 95.4877 44.0097C95.2276 43.695 95.0284 43.3278 94.8902 42.9081C94.752 42.4884 94.6829 42.0331 94.6829 41.5421ZM95.8108 41.3973V41.5421C95.8108 41.882 95.8495 42.2031 95.9267 42.5052C96.0039 42.8032 96.1197 43.0676 96.2742 43.2984C96.4327 43.5292 96.6298 43.7117 96.8656 43.846C97.1013 43.9761 97.3757 44.0412 97.6887 44.0412C97.9976 44.0412 98.2679 43.9761 98.4995 43.846C98.7353 43.7117 98.9304 43.5292 99.0848 43.2984C99.2393 43.0676 99.3551 42.8032 99.4324 42.5052C99.5136 42.2031 99.5543 41.882 99.5543 41.5421V41.3973C99.5543 41.0616 99.5136 40.7448 99.4324 40.4468C99.3551 40.1447 99.2373 39.8782 99.0787 39.6474C98.9243 39.4124 98.7292 39.2277 98.4934 39.0934C98.2618 38.9591 97.9894 38.892 97.6765 38.892C97.3676 38.892 97.0952 38.9591 96.8595 39.0934C96.6278 39.2277 96.4327 39.4124 96.2742 39.6474C96.1197 39.8782 96.0039 40.1447 95.9267 40.4468C95.8495 40.7448 95.8108 41.0616 95.8108 41.3973Z" fill="#464848"/>
<path d="M105.895 43.3236L108.139 38.0611H109.224L106.285 44.8721H105.505L102.578 38.0611H103.664L105.895 43.3236ZM103.334 38.0611V44.8721H102.206V38.0611H103.334ZM108.419 44.8721V38.0611H109.553V44.8721H108.419Z" fill="#464848"/>
<path d="M115.26 43.7075V40.2013C115.26 39.9327 115.207 39.6998 115.101 39.5026C115 39.3012 114.845 39.1459 114.638 39.0368C114.431 38.9277 114.174 38.8731 113.87 38.8731C113.585 38.8731 113.335 38.9235 113.12 39.0242C112.908 39.1249 112.742 39.2571 112.62 39.4208C112.502 39.5844 112.443 39.7607 112.443 39.9495H111.315C111.315 39.7061 111.376 39.4648 111.498 39.2256C111.62 38.9864 111.795 38.7703 112.022 38.5773C112.254 38.38 112.53 38.2247 112.851 38.1114C113.177 37.9939 113.538 37.9352 113.937 37.9352C114.416 37.9352 114.839 38.0191 115.205 38.187C115.575 38.3548 115.863 38.6087 116.071 38.9486C116.282 39.2844 116.388 39.7061 116.388 40.2139V43.3865C116.388 43.6131 116.406 43.8544 116.442 44.1104C116.483 44.3664 116.542 44.5867 116.619 44.7714V44.8721H115.443C115.386 44.7378 115.341 44.5594 115.308 44.337C115.276 44.1104 115.26 43.9006 115.26 43.7075ZM115.455 40.7427L115.467 41.561H114.327C114.006 41.561 113.719 41.5883 113.467 41.6428C113.215 41.6932 113.004 41.7708 112.833 41.8757C112.662 41.9807 112.532 42.1129 112.443 42.2723C112.354 42.4276 112.309 42.6101 112.309 42.82C112.309 43.034 112.356 43.2291 112.449 43.4054C112.543 43.5816 112.683 43.7222 112.87 43.8271C113.061 43.9279 113.294 43.9782 113.571 43.9782C113.916 43.9782 114.221 43.9027 114.485 43.7516C114.75 43.6005 114.959 43.4159 115.113 43.1977C115.272 42.9794 115.357 42.7675 115.369 42.5619L115.851 43.1221C115.823 43.2984 115.745 43.4935 115.619 43.7075C115.493 43.9216 115.325 44.1272 115.113 44.3244C114.906 44.5175 114.658 44.679 114.37 44.8091C114.085 44.935 113.764 44.998 113.406 44.998C112.959 44.998 112.567 44.9078 112.23 44.7273C111.896 44.5469 111.636 44.3055 111.449 44.0034C111.266 43.697 111.175 43.355 111.175 42.9773C111.175 42.6122 111.244 42.2912 111.382 42.0142C111.52 41.7331 111.719 41.5002 111.98 41.3155C112.24 41.1267 112.553 40.984 112.919 40.8875C113.284 40.7909 113.693 40.7427 114.144 40.7427H115.455Z" fill="#464848"/>
<path d="M120.753 38.0611V44.8721H119.619V38.0611H120.753ZM122.966 38.0611V39.0053H117.448V38.0611H122.966Z" fill="#464848"/>
<path d="M123.521 41.5421V41.3973C123.521 40.9063 123.59 40.451 123.728 40.0314C123.866 39.6075 124.066 39.2403 124.326 38.9298C124.586 38.615 124.901 38.3716 125.271 38.1996C125.641 38.0233 126.055 37.9352 126.514 37.9352C126.978 37.9352 127.394 38.0233 127.764 38.1996C128.138 38.3716 128.455 38.615 128.715 38.9298C128.98 39.2403 129.181 39.6075 129.319 40.0314C129.457 40.451 129.526 40.9063 129.526 41.3973V41.5421C129.526 42.0331 129.457 42.4884 129.319 42.9081C129.181 43.3278 128.98 43.695 128.715 44.0097C128.455 44.3202 128.14 44.5636 127.77 44.7399C127.405 44.912 126.99 44.998 126.527 44.998C126.063 44.998 125.647 44.912 125.277 44.7399C124.907 44.5636 124.59 44.3202 124.326 44.0097C124.066 43.695 123.866 43.3278 123.728 42.9081C123.59 42.4884 123.521 42.0331 123.521 41.5421ZM124.649 41.3973V41.5421C124.649 41.882 124.687 42.2031 124.765 42.5052C124.842 42.8032 124.958 43.0676 125.112 43.2984C125.271 43.5292 125.468 43.7117 125.704 43.846C125.939 43.9761 126.214 44.0412 126.527 44.0412C126.836 44.0412 127.106 43.9761 127.337 43.846C127.573 43.7117 127.768 43.5292 127.923 43.2984C128.077 43.0676 128.193 42.8032 128.27 42.5052C128.352 42.2031 128.392 41.882 128.392 41.5421V41.3973C128.392 41.0616 128.352 40.7448 128.27 40.4468C128.193 40.1447 128.075 39.8782 127.917 39.6474C127.762 39.4124 127.567 39.2277 127.331 39.0934C127.1 38.9591 126.827 38.892 126.514 38.892C126.206 38.892 125.933 38.9591 125.697 39.0934C125.466 39.2277 125.271 39.4124 125.112 39.6474C124.958 39.8782 124.842 40.1447 124.765 40.4468C124.687 40.7448 124.649 41.0616 124.649 41.3973Z" fill="#464848"/>
<path d="M135.251 38.0611V39.0242H132.063V38.0611H135.251ZM136.245 38.0611V44.8721H135.117V38.0611H136.245ZM131.788 38.0611H132.922L132.751 41.347C132.723 41.8548 132.676 42.3038 132.611 42.6941C132.55 43.0802 132.465 43.4117 132.355 43.6887C132.25 43.9656 132.115 44.1922 131.953 44.3685C131.794 44.5406 131.603 44.6686 131.38 44.7525C131.156 44.8322 130.898 44.8721 130.605 44.8721H130.252V43.846L130.496 43.8271C130.67 43.8146 130.819 43.7726 130.941 43.7012C131.067 43.6299 131.172 43.525 131.258 43.3865C131.343 43.2438 131.412 43.0613 131.465 42.8389C131.522 42.6164 131.565 42.3521 131.593 42.0457C131.626 41.7394 131.65 41.3826 131.666 40.9756L131.788 38.0611Z" fill="#464848"/>
<path d="M137.763 41.5421V41.3973C137.763 40.9063 137.832 40.451 137.97 40.0314C138.109 39.6075 138.308 39.2403 138.568 38.9298C138.828 38.615 139.143 38.3716 139.513 38.1996C139.883 38.0233 140.297 37.9352 140.757 37.9352C141.22 37.9352 141.637 38.0233 142.006 38.1996C142.38 38.3716 142.697 38.615 142.958 38.9298C143.222 39.2403 143.423 39.6075 143.561 40.0314C143.699 40.451 143.768 40.9063 143.768 41.3973V41.5421C143.768 42.0331 143.699 42.4884 143.561 42.9081C143.423 43.3278 143.222 43.695 142.958 44.0097C142.697 44.3202 142.382 44.5636 142.013 44.7399C141.647 44.912 141.232 44.998 140.769 44.998C140.305 44.998 139.889 44.912 139.519 44.7399C139.149 44.5636 138.832 44.3202 138.568 44.0097C138.308 43.695 138.109 43.3278 137.97 42.9081C137.832 42.4884 137.763 42.0331 137.763 41.5421ZM138.891 41.3973V41.5421C138.891 41.882 138.93 42.2031 139.007 42.5052C139.084 42.8032 139.2 43.0676 139.354 43.2984C139.513 43.5292 139.71 43.7117 139.946 43.846C140.181 43.9761 140.456 44.0412 140.769 44.0412C141.078 44.0412 141.348 43.9761 141.58 43.846C141.815 43.7117 142.011 43.5292 142.165 43.2984C142.319 43.0676 142.435 42.8032 142.512 42.5052C142.594 42.2031 142.634 41.882 142.634 41.5421V41.3973C142.634 41.0616 142.594 40.7448 142.512 40.4468C142.435 40.1447 142.317 39.8782 142.159 39.6474C142.004 39.4124 141.809 39.2277 141.574 39.0934C141.342 38.9591 141.07 38.892 140.757 38.892C140.448 38.892 140.175 38.9591 139.94 39.0934C139.708 39.2277 139.513 39.4124 139.354 39.6474C139.2 39.8782 139.084 40.1447 139.007 40.4468C138.93 40.7448 138.891 41.0616 138.891 41.3973Z" fill="#464848"/>
<path d="M149.445 38.0611V39.0242H146.396V44.8721H145.268V38.0611H149.445Z" fill="#464848"/>
<path d="M151.646 43.0277L154.688 38.0611H155.822V44.8721H154.688V39.9055L151.646 44.8721H150.524V38.0611H151.646V43.0277Z" fill="#464848"/>
<path d="M158.968 41.624H160.187L158.279 44.8721H157.059L158.968 41.624ZM159.913 38.0611H162.669V44.8721H161.541V39.0053H159.913C159.592 39.0053 159.33 39.062 159.126 39.1753C158.923 39.2844 158.775 39.4271 158.681 39.6033C158.588 39.7796 158.541 39.9621 158.541 40.151C158.541 40.3356 158.584 40.514 158.669 40.686C158.754 40.8539 158.889 40.9924 159.071 41.1015C159.254 41.2106 159.49 41.2651 159.779 41.2651H161.846V42.222H159.779C159.401 42.222 159.065 42.1695 158.773 42.0646C158.48 41.9597 158.232 41.8149 158.029 41.6302C157.826 41.4414 157.671 41.2211 157.566 40.9693C157.46 40.7133 157.407 40.4363 157.407 40.1384C157.407 39.8404 157.462 39.5655 157.572 39.3137C157.685 39.062 157.848 38.8416 158.059 38.6528C158.275 38.4639 158.537 38.3192 158.846 38.2184C159.159 38.1135 159.514 38.0611 159.913 38.0611Z" fill="#464848"/>
</svg>
