<svg width="200" height="90" viewBox="0 0 200 90" fill="none" xmlns="http://www.w3.org/2000/svg">
<path d="M15.9988 89.6267H12.9499C12.6985 89.6267 12.5727 89.5023 12.5727 89.2534V80.8542H3.77182V89.2534C3.77182 89.5023 3.6461 89.6267 3.39464 89.6267H0.345751C0.11525 89.6267 0 89.5023 0 89.2534V69.6242C0 69.3753 0.11525 69.2509 0.345751 69.2509H3.39464C3.6461 69.2509 3.77182 69.3753 3.77182 69.6242V77.619H12.5727V69.6242C12.5727 69.3753 12.6985 69.2509 12.9499 69.2509H15.9988C16.2293 69.2509 16.3446 69.3753 16.3446 69.6242V89.2534C16.3446 89.5023 16.2293 89.6267 15.9988 89.6267Z" fill="#B8BEBE"/>
<path d="M32.8001 89.6267H30.0027C29.7512 89.6267 29.6255 89.5023 29.6255 89.2534V83.0318C29.6255 82.3681 29.6569 81.6734 29.7198 80.9475L29.9084 79.2677H29.8455L28.0225 82.3785L23.5592 89.409C23.4963 89.5541 23.3706 89.6267 23.182 89.6267H20.3217C20.0912 89.6267 19.9759 89.5023 19.9759 89.2534V74.6948C19.9759 74.4459 20.0912 74.3215 20.3217 74.3215H23.1191C23.3706 74.3215 23.4963 74.4459 23.4963 74.6948V81.1031C23.4963 81.7875 23.4649 82.4822 23.402 83.1873L23.2134 84.8672H23.3077L23.4963 84.525C23.643 84.2346 23.863 83.8406 24.1564 83.3429C24.4497 82.8244 24.806 82.1919 25.2251 81.4453L29.5627 74.6015C29.6465 74.4148 29.8036 74.3215 30.0341 74.3215H32.8001C33.0516 74.3215 33.1773 74.4459 33.1773 74.6948V89.2534C33.1773 89.5023 33.0516 89.6267 32.8001 89.6267Z" fill="#B8BEBE"/>
<path d="M57.2949 89.6267H53.8688C53.6593 89.6267 53.5126 89.5541 53.4288 89.409L49.9398 83.0007H48.1797V89.2534C48.1797 89.3364 48.1377 89.4193 48.0539 89.5023C47.9911 89.5852 47.9072 89.6267 47.8025 89.6267H44.8793C44.7955 89.6267 44.7117 89.5852 44.6278 89.5023C44.544 89.4193 44.5021 89.3364 44.5021 89.2534V83.0007H42.6791L39.1587 89.409C39.0958 89.5541 38.9492 89.6267 38.7187 89.6267H35.3554C35.2088 89.6267 35.104 89.5438 35.0411 89.3779L39.6616 81.2897L35.6069 74.757C35.6069 74.7363 35.5964 74.7052 35.5755 74.6637C35.5545 74.6222 35.544 74.5807 35.544 74.5393C35.544 74.3941 35.6174 74.3215 35.7641 74.3215H39.1901C39.4206 74.3215 39.5673 74.3941 39.6302 74.5393L42.7734 80.1076H44.5021V74.6948C44.5021 74.5911 44.544 74.5081 44.6278 74.4459C44.7117 74.363 44.7955 74.3215 44.8793 74.3215H47.8025C48.0539 74.3215 48.1797 74.4459 48.1797 74.6948V80.1076H49.9084L53.083 74.5393C53.1668 74.3941 53.3135 74.3215 53.5231 74.3215H56.8234C56.9911 74.3215 57.0853 74.3526 57.1063 74.4148C57.1273 74.477 57.1377 74.5289 57.1377 74.5704C57.1377 74.5911 55.7652 76.8309 53.0202 81.2897C56.0586 86.5781 57.5883 89.2742 57.6092 89.3779C57.6092 89.523 57.5044 89.606 57.2949 89.6267Z" fill="#B8BEBE"/>
<path d="M67.4994 90C64.8173 90 62.7742 89.3467 61.3702 88.0402C59.9663 86.7337 59.2643 84.8257 59.2643 82.3163V76.5924C59.2643 74.0415 59.9663 72.1232 61.3702 70.8374C62.7742 69.5308 64.8173 68.8776 67.4994 68.8776C68.7358 68.8776 69.8568 69.0227 70.8627 69.3131C71.8685 69.5827 72.7276 69.9871 73.4401 70.5263C74.1735 71.0448 74.7392 71.6877 75.1374 72.455C75.5355 73.2223 75.7346 74.083 75.7346 75.037C75.7346 75.4932 75.7136 75.8562 75.6717 76.1258C75.6508 76.3746 75.525 76.4991 75.2945 76.4991H72.2457C72.1199 76.4991 72.0256 76.468 71.9628 76.4057C71.9209 76.3435 71.8999 76.1984 71.8999 75.9702C71.8999 74.7674 71.5542 73.8341 70.8627 73.1705C70.1712 72.4861 69.071 72.1439 67.5623 72.1439C66.0955 72.1439 64.9744 72.5276 64.1991 73.2949C63.4238 74.0415 63.0361 75.1614 63.0361 76.6546V82.223C63.0361 83.7162 63.4238 84.8464 64.1991 85.6138C64.9744 86.3604 66.0955 86.7337 67.5623 86.7337C69.0082 86.7337 70.0978 86.4122 70.8312 85.7693C71.5646 85.1264 71.9313 84.2657 71.9313 83.1873L71.8999 82.6896C71.8999 82.4822 71.9942 82.3785 72.1828 82.3785H75.2631C75.4936 82.3785 75.6298 82.5237 75.6717 82.814C75.6927 82.897 75.7032 83.0007 75.7032 83.1251C75.7032 83.2288 75.7032 83.3636 75.7032 83.5295C75.7032 84.525 75.5041 85.4271 75.106 86.2359C74.7288 87.024 74.184 87.698 73.4715 88.258C72.78 88.8179 71.9209 89.2534 70.8941 89.5645C69.8883 89.8548 68.7567 90 67.4994 90Z" fill="#B8BEBE"/>
<path d="M85.3864 89.6267H82.4318C82.1803 89.6267 82.0546 89.5023 82.0546 89.2534V77.4012H77.7799C77.5494 77.4012 77.4341 77.2768 77.4341 77.0279V74.6948C77.4341 74.4459 77.5494 74.3215 77.7799 74.3215H90.0069C90.2583 74.3215 90.3841 74.4459 90.3841 74.6948V77.0279C90.3841 77.2768 90.2583 77.4012 90.0069 77.4012H85.7636V89.2534C85.7636 89.5023 85.6378 89.6267 85.3864 89.6267Z" fill="#B8BEBE"/>
<path d="M98.7395 90C96.5812 90 94.8839 89.4919 93.6476 88.4757C92.4112 87.4595 91.7931 85.8523 91.7931 83.6539V80.2943C91.7931 78.1167 92.4112 76.5198 93.6476 75.5036C94.8839 74.4667 96.5812 73.9482 98.7395 73.9482C100.898 73.9482 102.585 74.4667 103.8 75.5036C105.036 76.5198 105.655 78.1167 105.655 80.2943V83.6539C105.655 85.8315 105.047 87.4388 103.831 88.4757C102.637 89.4919 100.94 90 98.7395 90ZM98.7395 86.8581C100.877 86.8581 101.946 85.6967 101.946 83.374V80.6365C101.946 79.3921 101.684 78.49 101.16 77.93C100.636 77.3701 99.8292 77.0901 98.7395 77.0901C96.5812 77.0901 95.502 78.2308 95.502 80.512V83.3118C95.502 84.5561 95.7535 85.4582 96.2564 86.0182C96.7803 86.5781 97.608 86.8581 98.7395 86.8581Z" fill="#B8BEBE"/>
<path d="M124.651 89.6267H121.916C121.686 89.6267 121.571 89.5023 121.571 89.2534L121.508 83.2806C121.508 82.9696 121.571 81.7356 121.696 79.5788H121.602C120.994 80.9268 120.502 81.9015 120.125 82.5029L117.139 87.7913C117.034 87.9158 116.908 87.978 116.762 87.978C116.594 87.978 116.468 87.9158 116.384 87.7913L113.398 82.5029C113.252 82.2541 113.053 81.8912 112.801 81.4142C112.571 80.9164 112.277 80.3046 111.921 79.5788H111.827C111.952 81.1134 112.015 82.3474 112.015 83.2806L111.952 89.2534C111.952 89.5023 111.837 89.6267 111.607 89.6267H108.872C108.621 89.6267 108.495 89.5023 108.495 89.2534L108.778 74.6948C108.778 74.4459 108.893 74.3215 109.124 74.3215H112.172C112.34 74.3215 112.476 74.4148 112.581 74.6015L116.762 82.7829L120.942 74.6015C121.026 74.4148 121.162 74.3215 121.351 74.3215H124.399C124.651 74.3215 124.777 74.4459 124.777 74.6948L125.028 89.2534C125.028 89.5023 124.902 89.6267 124.651 89.6267Z" fill="#B8BEBE"/>
<path d="M144.365 89.6267H141.316C141.064 89.6267 140.939 89.5023 140.939 89.2534V72.5483H132.2V89.2534C132.2 89.5023 132.075 89.6267 131.823 89.6267H128.774C128.544 89.6267 128.429 89.5023 128.429 89.2534V69.6242C128.429 69.3753 128.544 69.2509 128.774 69.2509H144.365C144.595 69.2509 144.71 69.3753 144.71 69.6242V89.2534C144.71 89.5023 144.595 89.6267 144.365 89.6267Z" fill="#B8BEBE"/>
<path d="M147.872 90C147.495 90 147.065 89.9585 146.583 89.8756C146.373 89.8548 146.269 89.72 146.269 89.4712V87.2003C146.269 86.9929 146.352 86.8892 146.52 86.8892L147.369 86.9203C147.872 86.9203 148.228 86.7025 148.437 86.267C148.668 85.8315 148.825 85.0227 148.909 83.8406L149.663 74.6948C149.684 74.4459 149.81 74.3215 150.041 74.3215H160.444C160.696 74.3215 160.822 74.4459 160.822 74.6948V89.2534C160.822 89.3364 160.78 89.4193 160.696 89.5023C160.633 89.5852 160.549 89.6267 160.444 89.6267H157.458C157.249 89.6267 157.134 89.5023 157.113 89.2534V77.4012H152.964L152.398 84.3694C152.23 86.4018 151.801 87.8535 151.109 88.7246C150.439 89.5749 149.359 90 147.872 90Z" fill="#B8BEBE"/>
<path d="M177.161 90C175.087 90 173.442 89.4815 172.226 88.4446C171.032 87.4077 170.435 85.8315 170.435 83.7162V83.4051H167.763V89.2534C167.763 89.5023 167.637 89.6267 167.386 89.6267H164.431C164.18 89.6267 164.054 89.5023 164.054 89.2534V74.6948C164.054 74.4459 164.18 74.3215 164.431 74.3215H167.386C167.637 74.3215 167.763 74.4459 167.763 74.6948V80.3876H170.435C170.435 78.2515 171.011 76.6442 172.163 75.5658C173.337 74.4874 175.003 73.9482 177.161 73.9482C179.194 73.9482 180.818 74.4667 182.033 75.5036C183.269 76.5198 183.887 78.096 183.887 80.232V83.7162C183.887 85.8523 183.269 87.4388 182.033 88.4757C180.818 89.4919 179.194 90 177.161 90ZM177.161 86.827C178.23 86.827 178.995 86.5366 179.456 85.956C179.938 85.3753 180.179 84.5146 180.179 83.374V80.5742C180.179 79.4336 179.938 78.5729 179.456 77.9923C178.995 77.4116 178.23 77.1212 177.161 77.1212C176.092 77.1212 175.317 77.4116 174.835 77.9923C174.374 78.5729 174.144 79.4336 174.144 80.5742V83.374C174.144 84.5146 174.374 85.3753 174.835 85.956C175.317 86.5366 176.092 86.827 177.161 86.827Z" fill="#B8BEBE"/>
<path d="M193.218 90C190.997 90 189.289 89.4608 188.094 88.3824C186.921 87.2832 186.334 85.7278 186.334 83.7162V80.2009C186.334 78.1478 186.931 76.5924 188.126 75.5347C189.32 74.477 191.028 73.9482 193.249 73.9482C194.297 73.9482 195.219 74.083 196.015 74.3526C196.812 74.6015 197.482 74.9437 198.027 75.3792C198.572 75.8147 198.98 76.3332 199.253 76.9346C199.546 77.5153 199.693 78.1478 199.693 78.8322V79.0188C199.693 79.4543 199.567 79.6721 199.316 79.6721H196.487C196.277 79.6721 196.162 79.5062 196.141 79.1744C196.141 78.5107 195.879 78.0026 195.355 77.6501C194.852 77.2768 194.161 77.0901 193.281 77.0901C192.191 77.0901 191.374 77.3597 190.829 77.8989C190.305 78.4381 190.043 79.3299 190.043 80.5742V83.374C190.043 84.5561 190.305 85.4271 190.829 85.9871C191.353 86.547 192.16 86.827 193.249 86.827C194.192 86.827 194.905 86.6403 195.387 86.267C195.869 85.8937 196.11 85.396 196.11 84.7738C196.11 84.4628 196.225 84.3072 196.455 84.3072H199.284C199.536 84.3072 199.661 84.4213 199.661 84.6494V84.7738C199.661 86.3915 199.117 87.6669 198.027 88.6001C196.958 89.5334 195.355 90 193.218 90Z" fill="#B8BEBE"/>
<path fill-rule="evenodd" clip-rule="evenodd" d="M61.4439 0H0V61.2245H61.4439V0ZM37.5686 20.2041L30.722 12.2449L23.8754 20.2041H14.4393V25.7143L16.2826 31.2245L16.2826 48.9796L23.6559 48.9796V44.3878C23.6559 40.4992 26.8195 37.3469 30.722 37.3469C34.6245 37.3469 37.788 40.4992 37.788 44.3878V48.9796L45.1613 48.9796L45.1613 31.2245L47.0046 25.7143V20.2041H37.5686Z" fill="#B8BEBE"/>
<path fill-rule="evenodd" clip-rule="evenodd" d="M130.568 0H69.124V61.2245H130.568V0ZM116.528 24.1384C116.518 24.1778 116.508 24.2136 116.508 24.2494C116.508 24.329 116.508 24.4087 116.649 24.568C116.602 24.6476 116.602 24.6875 116.602 24.7671C116.555 24.8468 116.555 24.8866 116.555 24.9662C115.382 35.3202 111.345 48.9796 107.027 48.9796H106.98H106.886H106.84H106.746H106.699C106.652 48.9398 106.605 48.9398 106.558 48.9398H106.511C106.487 48.9398 106.464 48.9298 106.441 48.9199C106.417 48.9099 106.394 48.8999 106.37 48.8999C106.323 48.8999 106.276 48.9 106.229 48.8601C106.229 48.8203 106.182 48.8203 106.182 48.8203C106.159 48.8203 106.147 48.8103 106.135 48.8004C106.124 48.7904 106.112 48.7805 106.089 48.7805L106.042 48.7407L105.948 48.661L105.901 48.6212C105.877 48.6013 105.866 48.5814 105.854 48.5615C105.842 48.5415 105.83 48.5216 105.807 48.5017C105.76 48.4221 105.713 48.3822 105.666 48.3424L105.619 48.3026C105.596 48.2827 105.584 48.2628 105.572 48.2429C105.56 48.223 105.549 48.203 105.525 48.1831V48.1433V48.1035C105.465 48.0263 105.424 47.9492 105.377 47.8613C105.351 47.8131 105.324 47.7617 105.291 47.7053C104.915 46.9486 104.774 46.1522 104.868 45.3557C104.915 44.9575 104.915 44.5592 104.915 44.161C104.915 39.7008 102.709 36.1167 99.9399 35.9574C97.1706 36.1167 94.9646 39.7008 94.9646 44.161C94.9646 44.5592 94.9646 44.9575 95.0116 45.3557C95.0585 46.1522 94.9646 46.9486 94.5891 47.7053C94.5422 47.765 94.507 47.8347 94.4718 47.9044C94.4366 47.9741 94.4014 48.0438 94.3544 48.1035V48.1433V48.1831C94.331 48.203 94.3192 48.223 94.3075 48.2429C94.2958 48.2628 94.284 48.2827 94.2606 48.3026L94.2136 48.3424C94.1667 48.4221 94.1198 48.4619 94.0728 48.5017C94.0728 48.5415 94.0259 48.5814 93.979 48.6212L93.932 48.661L93.8381 48.7407L93.7912 48.7805C93.7677 48.7805 93.756 48.7904 93.7443 48.8004C93.7325 48.8103 93.7208 48.8203 93.6973 48.8203C93.6973 48.8601 93.6504 48.8601 93.6504 48.8601C93.6269 48.8601 93.6035 48.8701 93.58 48.88C93.5565 48.89 93.5331 48.8999 93.5096 48.8999C93.4861 48.8999 93.4627 48.9099 93.4392 48.9199C93.4157 48.9298 93.3923 48.9398 93.3688 48.9398H93.3218C93.2749 48.9796 93.228 48.9796 93.181 48.9796H93.1341H93.0402H92.9933H92.8994H92.8525C88.5343 48.9796 84.4978 35.3202 83.3244 24.9662C83.2775 24.8866 83.2775 24.8468 83.2775 24.7671C83.2305 24.6875 83.2305 24.6476 83.2305 24.568C83.2305 24.5022 83.2163 24.4485 83.2035 24.4002C83.1931 24.3608 83.1836 24.325 83.1836 24.2892C83.1836 24.2235 83.1694 24.1698 83.1566 24.1215C83.1461 24.0821 83.1367 24.0463 83.1367 24.0105C83.0897 23.9706 83.0897 23.891 83.0897 23.8113C83.0897 23.7317 83.078 23.6521 83.0663 23.5724C83.0545 23.4928 83.0428 23.4131 83.0428 23.3335V23.1742C82.9959 23.0547 82.9958 22.9352 82.9958 22.8158V22.6565C82.9489 22.537 82.9489 22.4176 82.9489 22.2981V22.2981V22.1785V21.2228V21.1431V20.7051V20.6653V19.4706C82.9489 15.9661 85.3896 12.3422 90.5526 12.3422H90.5995C91.4913 12.2228 92.477 12.3024 93.6035 12.4617C95.7573 12.5516 97.9907 13.4753 99.1251 13.9444C99.4986 14.0989 99.753 14.2041 99.846 14.2139C99.9417 14.2038 100.208 14.0954 100.599 13.9361C101.743 13.4705 103.955 12.5703 106.089 12.4219C107.168 12.2626 108.201 12.183 109.092 12.3024H109.139C114.302 12.3024 116.743 15.9263 116.743 19.4307V20.6254V20.6653V21.1033V21.183V22.1388V22.2582C116.696 22.3777 116.696 22.4972 116.696 22.6167V22.776C116.696 22.8357 116.684 22.8954 116.673 22.9552C116.661 23.0149 116.649 23.0746 116.649 23.1344V23.2936C116.649 23.3733 116.637 23.4529 116.626 23.5326C116.614 23.6122 116.602 23.6919 116.602 23.7715C116.555 23.8113 116.555 23.891 116.555 23.9706C116.555 24.0364 116.541 24.0901 116.528 24.1384Z" fill="#B8BEBE"/>
<path fill-rule="evenodd" clip-rule="evenodd" d="M199.693 0H138.249V61.2245H199.693V0ZM163.492 12.2449H174.45V25.1528H187.404V36.0718H174.45V48.9796H163.492V36.0718H150.538V25.1528H163.492V12.2449Z" fill="#B8BEBE"/>
</svg>
