<svg width="22" height="22" viewBox="0 0 22 22" fill="none" xmlns="http://www.w3.org/2000/svg">
<path d="M10 3H3C2.46957 3 1.96086 3.21071 1.58579 3.58579C1.21071 3.96086 1 4.46957 1 5V19C1 19.5304 1.21071 20.0391 1.58579 20.4142C1.96086 20.7893 2.46957 21 3 21H17C17.5304 21 18.0391 20.7893 18.4142 20.4142C18.7893 20.0391 19 19.5304 19 19V12" stroke="white" stroke-width="2" stroke-linecap="round" stroke-linejoin="round"/>
<path d="M17.4098 1.61598C17.8042 1.22158 18.3391 1 18.8969 1C19.4547 1 19.9896 1.22158 20.384 1.61598C20.7784 2.01039 21 2.54532 21 3.1031C21 3.66087 20.7784 4.1958 20.384 4.59021L10.9656 14.0086L7 15L7.99141 11.0344L17.4098 1.61598Z" stroke="white" stroke-width="2" stroke-linecap="round" stroke-linejoin="round"/>
</svg>
