<svg width="20" height="20" viewBox="0 0 20 20" fill="none" xmlns="http://www.w3.org/2000/svg">
<path d="M13.3333 10H15.5556C15.5556 8.52658 14.9702 7.1135 13.9284 6.07163C12.8865 5.02976 11.4734 4.44444 10 4.44444V6.66667C10.8841 6.66667 11.7319 7.01786 12.357 7.64298C12.9821 8.2681 13.3333 9.11595 13.3333 10ZM17.7778 10H20C20 4.44444 15.5222 0 10 0V2.22222C14.2889 2.22222 17.7778 5.7 17.7778 10ZM18.8889 13.8889C17.5 13.8889 16.1667 13.6667 14.9222 13.2556C14.5333 13.1333 14.1 13.2222 13.7889 13.5333L11.3444 15.9778C8.2 14.3778 5.62222 11.8 4.02222 8.65556L6.46667 6.21111C6.77778 5.9 6.86667 5.46667 6.74444 5.07778C6.33333 3.83333 6.11111 2.5 6.11111 1.11111C6.11111 0.816426 5.99405 0.533811 5.78567 0.325437C5.5773 0.117063 5.29469 0 5 0H1.11111C0.816426 0 0.533811 0.117063 0.325437 0.325437C0.117063 0.533811 0 0.816426 0 1.11111C0 6.12076 1.99007 10.9252 5.53243 14.4676C9.07478 18.0099 13.8792 20 18.8889 20C19.1836 20 19.4662 19.8829 19.6746 19.6746C19.8829 19.4662 20 19.1836 20 18.8889V15C20 14.7053 19.8829 14.4227 19.6746 14.2143C19.4662 14.006 19.1836 13.8889 18.8889 13.8889Z" fill="#29C1B6"/>
</svg>
