<svg width="30" height="30" viewBox="0 0 30 30" fill="none" xmlns="http://www.w3.org/2000/svg"><path d="M7.723 13.354a1 1 0 011-1h3.633V8.722a1 1 0 112 0v3.632h3.633a1 1 0 110 2h-3.633v3.634a1 1 0 11-2 0v-3.634H8.723a1 1 0 01-1-1z" fill="#fff"/><path fill-rule="evenodd" clip-rule="evenodd" d="M22.063 23.48a13.302 13.302 0 01-8.708 3.23C5.979 26.71 0 20.73 0 13.354 0 5.979 5.98 0 13.355 0s13.354 5.98 13.354 13.355c0 3.328-1.217 6.372-3.232 8.71l6.026 6.027a1 1 0 01-1.414 1.414l-6.026-6.026zM2 13.355C2 7.084 7.084 2 13.355 2c6.27 0 11.354 5.084 11.354 11.355 0 3.075-1.222 5.864-3.207 7.909a1.017 1.017 0 00-.24.24 11.317 11.317 0 01-7.907 3.205C7.084 24.71 2 19.626 2 13.355z" fill="#fff"/></svg>