<?xml version="1.0" encoding="utf-8"?><svg viewBox="0 0 502.66 502.66" xmlns="http://www.w3.org/2000/svg" xmlns:xlink="http://www.w3.org/1999/xlink"><style>:root>svg{display:none}:root>svg:target{display:block}</style><svg viewBox="0 0 14 8" id="chevrone-icon" xmlns="http://www.w3.org/2000/svg"><path fill-rule="evenodd" clip-rule="evenodd" d="M.293.293a1 1 0 000 1.414l6 6a1 1 0 001.414 0l6-6A1 1 0 0012.293.293L7 5.586 1.707.293a1 1 0 00-1.414 0z"/></svg><svg viewBox="0 0 502.664 502.664" id="icon" xmlns="http://www.w3.org/2000/svg"><path d="M153.821 358.226L0 274.337v-46.463l153.821-83.414v54.574L46.636 250.523l107.185 53.431v54.272zm26.273 29.358L282.103 115.08h32.227L212.084 387.584h-31.99zm168.749-29.358v-54.272l107.164-52.999-107.164-52.59v-53.927l153.821 83.522v46.183l-153.821 84.083z"/></svg><svg viewBox="0 0 200 90" id="logo-footer" xmlns="http://www.w3.org/2000/svg"><path d="M15.999 89.627h-3.05c-.25 0-.376-.125-.376-.374v-8.399H3.772v8.4c0 .248-.126.373-.377.373H.345c-.23 0-.345-.125-.345-.374V69.624c0-.249.115-.373.346-.373h3.049c.251 0 .377.124.377.373v7.995h8.8v-7.995c0-.249.127-.373.378-.373h3.049c.23 0 .346.124.346.373v19.63c0 .248-.116.373-.346.373zm16.801 0h-2.797c-.252 0-.378-.125-.378-.374v-6.221c0-.664.032-1.359.095-2.084l.188-1.68h-.063l-1.822 3.11-4.464 7.031c-.063.145-.188.218-.377.218h-2.86c-.23 0-.346-.125-.346-.374V74.695c0-.25.115-.373.346-.373h2.797c.252 0 .377.124.377.373v6.408c0 .684-.031 1.38-.094 2.084l-.189 1.68h.095l.188-.342c.147-.29.367-.684.66-1.182.294-.519.65-1.151 1.07-1.898l4.337-6.843c.084-.187.24-.28.471-.28H32.8c.252 0 .377.124.377.373v14.558c0 .25-.125.374-.377.374zm24.495 0h-3.426c-.21 0-.356-.073-.44-.218l-3.49-6.408h-1.76v6.252c0 .083-.041.166-.125.25a.3.3 0 01-.252.124H44.88c-.084 0-.167-.042-.251-.125-.084-.083-.126-.166-.126-.249v-6.252H42.68l-3.52 6.408c-.063.145-.21.218-.44.218h-3.364c-.146 0-.251-.083-.314-.25l4.62-8.087-4.054-6.533c0-.02-.01-.052-.032-.093a.274.274 0 01-.031-.125c0-.145.073-.218.22-.218h3.426c.23 0 .377.073.44.218l3.143 5.569h1.73v-5.413c0-.104.041-.187.125-.25.084-.082.167-.123.251-.123h2.924c.25 0 .377.124.377.373v5.413h1.728l3.175-5.569c.084-.145.23-.218.44-.218h3.3c.168 0 .262.032.283.094a.506.506 0 01.032.155c0 .021-1.373 2.26-4.118 6.72 3.039 5.288 4.568 7.984 4.59 8.088 0 .145-.106.228-.315.249zM67.5 90c-2.683 0-4.726-.653-6.13-1.96-1.404-1.306-2.106-3.214-2.106-5.724v-5.724c0-2.55.702-4.469 2.106-5.755 1.404-1.306 3.447-1.96 6.13-1.96 1.236 0 2.357.146 3.363.436 1.005.27 1.865.674 2.577 1.213a5.366 5.366 0 011.697 1.929c.398.767.598 1.628.598 2.582 0 .456-.021.82-.063 1.089-.021.249-.147.373-.377.373h-3.05c-.125 0-.22-.031-.282-.093-.042-.063-.063-.208-.063-.436 0-1.203-.346-2.136-1.037-2.8-.692-.684-1.792-1.026-3.3-1.026-1.468 0-2.589.384-3.364 1.15-.775.748-1.163 1.867-1.163 3.36v5.569c0 1.493.388 2.623 1.163 3.39.775.747 1.897 1.12 3.363 1.12 1.446 0 2.536-.32 3.27-.964.733-.643 1.1-1.503 1.1-2.582l-.032-.497c0-.208.094-.311.283-.311h3.08c.23 0 .367.145.409.435.02.083.031.187.031.311v.404c0 .996-.199 1.898-.597 2.707a5.651 5.651 0 01-1.634 2.022c-.692.56-1.551.995-2.578 1.306-1.006.29-2.137.436-3.395.436zm17.886-.373h-2.954c-.252 0-.377-.125-.377-.374V77.401H77.78c-.23 0-.346-.124-.346-.373v-2.333c0-.25.115-.373.346-.373h12.227c.251 0 .377.124.377.373v2.333c0 .249-.126.373-.377.373h-4.243v11.852c0 .25-.126.374-.378.374zM98.74 90c-2.159 0-3.856-.508-5.092-1.524-1.237-1.016-1.855-2.624-1.855-4.822v-3.36c0-2.177.618-3.774 1.855-4.79 1.236-1.037 2.933-1.556 5.092-1.556 2.158 0 3.845.519 5.06 1.556 1.236 1.016 1.855 2.613 1.855 4.79v3.36c0 2.178-.608 3.785-1.824 4.822C102.637 89.492 100.94 90 98.74 90zm0-3.142c2.137 0 3.206-1.161 3.206-3.484v-2.737c0-1.245-.262-2.147-.786-2.707s-1.33-.84-2.42-.84c-2.159 0-3.238 1.14-3.238 3.422v2.8c0 1.244.252 2.146.754 2.706.524.56 1.352.84 2.484.84zm25.911 2.769h-2.735c-.23 0-.345-.125-.345-.374l-.063-5.972c0-.311.063-1.545.188-3.702h-.094c-.608 1.348-1.1 2.323-1.477 2.924l-2.986 5.288a.479.479 0 01-.377.187.426.426 0 01-.378-.187l-2.986-5.288a29.927 29.927 0 01-.597-1.089c-.23-.498-.524-1.11-.88-1.835h-.094c.125 1.534.188 2.768.188 3.702l-.063 5.972c0 .25-.115.374-.345.374h-2.735c-.251 0-.377-.125-.377-.374l.283-14.558c0-.25.115-.373.346-.373h3.048c.168 0 .304.093.409.28l4.181 8.18 4.18-8.18c.084-.187.22-.28.409-.28h3.048c.252 0 .378.124.378.373l.251 14.558c0 .25-.126.374-.377.374zm19.714 0h-3.049c-.252 0-.377-.125-.377-.374V72.548H132.2v16.705c0 .25-.125.374-.377.374h-3.049c-.23 0-.345-.125-.345-.374V69.624c0-.249.115-.373.345-.373h15.591c.23 0 .345.124.345.373v19.63c0 .248-.115.373-.345.373zm3.507.373c-.377 0-.807-.041-1.289-.124-.21-.021-.314-.156-.314-.405v-2.27c0-.208.083-.312.251-.312l.849.031c.503 0 .859-.218 1.068-.653.231-.435.388-1.244.472-2.426l.754-9.146c.021-.25.147-.373.378-.373h10.403c.252 0 .378.124.378.373v14.558c0 .083-.042.166-.126.25a.3.3 0 01-.252.124h-2.986c-.209 0-.324-.125-.345-.374V77.401h-4.149l-.566 6.968c-.168 2.033-.597 3.484-1.289 4.356-.67.85-1.75 1.275-3.237 1.275zm29.289 0c-2.074 0-3.719-.519-4.935-1.555-1.194-1.037-1.791-2.613-1.791-4.729v-.31h-2.672v5.847c0 .25-.126.374-.377.374h-2.955c-.251 0-.377-.125-.377-.374V74.695c0-.25.126-.373.377-.373h2.955c.251 0 .377.124.377.373v5.693h2.672c0-2.137.576-3.744 1.728-4.822 1.174-1.079 2.84-1.618 4.998-1.618 2.033 0 3.657.519 4.872 1.556 1.236 1.016 1.854 2.592 1.854 4.728v3.484c0 2.136-.618 3.723-1.854 4.76-1.215 1.016-2.839 1.524-4.872 1.524zm0-3.173c1.069 0 1.834-.29 2.295-.871.482-.58.723-1.441.723-2.582v-2.8c0-1.14-.241-2.001-.723-2.582-.461-.58-1.226-.87-2.295-.87s-1.844.29-2.326.87c-.461.58-.691 1.442-.691 2.582v2.8c0 1.14.23 2.001.691 2.582.482.58 1.257.871 2.326.871zM193.218 90c-2.221 0-3.929-.54-5.124-1.618-1.173-1.099-1.76-2.654-1.76-4.666v-3.515c0-2.053.597-3.609 1.792-4.666 1.194-1.058 2.902-1.587 5.123-1.587 1.048 0 1.97.135 2.766.405.797.249 1.467.59 2.012 1.026.545.436.953.954 1.226 1.556.293.58.44 1.213.44 1.897v.187c0 .435-.126.653-.377.653h-2.829c-.21 0-.325-.166-.346-.498 0-.663-.262-1.171-.786-1.524-.503-.373-1.194-.56-2.074-.56-1.09 0-1.907.27-2.452.809-.524.54-.786 1.43-.786 2.675v2.8c0 1.182.262 2.053.786 2.613s1.331.84 2.42.84c.943 0 1.656-.187 2.138-.56.482-.373.723-.871.723-1.493 0-.311.115-.467.345-.467h2.829c.252 0 .377.114.377.342v.125c0 1.617-.544 2.893-1.634 3.826-1.069.933-2.672 1.4-4.809 1.4z"/><path fill-rule="evenodd" clip-rule="evenodd" d="M61.444 0H0v61.224h61.444V0zM37.569 20.204l-6.847-7.96-6.847 7.96H14.44v5.51l1.844 5.51V48.98h7.373v-4.592c0-3.889 3.164-7.041 7.066-7.041 3.902 0 7.066 3.152 7.066 7.04v4.593h7.373V31.225l1.844-5.51v-5.51H37.57zM130.568 0H69.124v61.224h61.444V0zm-14.04 24.138c-.01.04-.02.076-.02.111 0 .08 0 .16.141.319-.047.08-.047.12-.047.2-.047.079-.047.119-.047.198-1.173 10.354-5.21 24.014-9.528 24.014h-.328c-.047-.04-.094-.04-.141-.04h-.047c-.024 0-.047-.01-.07-.02-.024-.01-.047-.02-.071-.02-.047 0-.094 0-.141-.04 0-.04-.047-.04-.047-.04-.023 0-.035-.01-.047-.02a.062.062 0 00-.046-.02l-.047-.04-.094-.079-.047-.04c-.024-.02-.035-.04-.047-.06a.222.222 0 00-.047-.06.57.57 0 00-.141-.159l-.047-.04c-.023-.02-.035-.04-.047-.06-.012-.019-.023-.039-.047-.059v-.08c-.06-.077-.101-.154-.148-.242-.026-.048-.053-.1-.086-.156a4.133 4.133 0 01-.423-2.35c.047-.397.047-.796.047-1.194 0-4.46-2.206-8.044-4.975-8.204-2.77.16-4.975 3.744-4.975 8.204 0 .398 0 .797.047 1.195.046.796-.047 1.593-.423 2.35-.047.059-.082.129-.117.198-.035.07-.07.14-.118.2v.08a.21.21 0 00-.046.059.21.21 0 01-.047.06l-.047.04a.567.567 0 01-.141.159c0 .04-.047.08-.094.12l-.047.039-.094.08-.047.04c-.023 0-.035.01-.047.02a.063.063 0 01-.047.02c0 .04-.047.04-.047.04-.023 0-.047.01-.07.019a.187.187 0 01-.07.02c-.024 0-.047.01-.07.02-.024.01-.048.02-.071.02h-.047c-.047.04-.094.04-.141.04h-.328c-4.319 0-8.355-13.66-9.529-24.014-.046-.08-.046-.12-.046-.199-.047-.08-.047-.12-.047-.199a.625.625 0 00-.027-.168c-.01-.04-.02-.075-.02-.11a.625.625 0 00-.027-.168.438.438 0 01-.02-.111c-.047-.04-.047-.12-.047-.2 0-.08-.012-.159-.024-.239a1.638 1.638 0 01-.023-.238v-.16a.945.945 0 01-.047-.358v-.16c-.047-.119-.047-.238-.047-.358v-2.827c0-3.505 2.44-7.129 7.604-7.129h.047c.891-.12 1.877-.04 3.004.12 2.153.09 4.387 1.013 5.521 1.482.374.155.628.26.721.27.096-.01.362-.119.753-.278 1.144-.466 3.356-1.366 5.49-1.514 1.079-.16 2.112-.239 3.003-.12h.047c5.163 0 7.604 3.624 7.604 7.129v2.828c-.047.119-.047.238-.047.358v.159c0 .06-.012.12-.023.18a.906.906 0 00-.024.178v.16c0 .08-.012.159-.023.239-.012.08-.024.159-.024.238-.047.04-.047.12-.047.2 0 .065-.014.12-.027.167zM199.693 0h-61.444v61.224h61.444V0zm-36.201 12.245h10.958v12.908h12.954v10.919H174.45V48.98h-10.958V36.072h-12.954v-10.92h12.954V12.246z"/></svg><svg viewBox="0 0 14 22" id="ok" xmlns="http://www.w3.org/2000/svg"><path d="M7.029 11.37c3.43 0 6.228-2.553 6.228-5.685C13.257 2.553 10.46 0 7.029 0 3.56 0 .764 2.553.764 5.685c0 3.132 2.797 5.685 6.265 5.685zm0-8.034c1.417 0 2.573 1.056 2.573 2.35 0 1.293-1.156 2.348-2.573 2.348S4.456 6.98 4.456 5.685c-.038-1.293 1.118-2.349 2.573-2.349zm2.499 12.698c1.268-.272 2.498-.715 3.617-1.362.858-.476 1.119-1.532.56-2.315-.523-.783-1.679-1.02-2.537-.51-2.535 1.464-5.854 1.464-8.39 0-.858-.477-1.977-.273-2.536.51-.485.783-.224 1.805.634 2.281 1.118.647 2.35 1.09 3.617 1.362l-3.468 3.166a1.563 1.563 0 000 2.349c.373.34.82.477 1.305.477s.932-.17 1.305-.477l3.431-3.132 3.431 3.132c.709.647 1.865.647 2.573 0a1.563 1.563 0 000-2.349l-3.542-3.132z"/></svg><svg viewBox="0 0 32 32" id="ok-icon" xmlns="http://www.w3.org/2000/svg"><path fill-rule="evenodd" clip-rule="evenodd" d="M32 0H0v32h32V0zM12.21 14.261a5.282 5.282 0 003.743 1.584 5.165 5.165 0 002.039-.392 5.23 5.23 0 001.73-1.165 5.36 5.36 0 001.147-1.757 5.393 5.393 0 00.385-2.071 5.454 5.454 0 00-.38-2.085A5.386 5.386 0 0019.73 6.6 5.29 5.29 0 0018 5.415 5.223 5.223 0 0015.953 5a5.35 5.35 0 00-3.75 1.63 5.52 5.52 0 00-1.552 3.83 5.45 5.45 0 001.56 3.801zm2.88-5.867a2.18 2.18 0 011.725 0c.273.117.52.29.726.505a2.249 2.249 0 01.62 1.636 2.219 2.219 0 01-.657 1.553 2.129 2.129 0 01-1.551.615 2.076 2.076 0 01-1.567-.598 2.142 2.142 0 01-.642-1.57 2.275 2.275 0 01.62-1.636c.206-.216.453-.388.726-.505zm6.017 14.93l-3.02-2.992a15.812 15.812 0 003.24-1.42c.33-.24.558-.595.64-.997a1.653 1.653 0 00-.198-1.173 1.568 1.568 0 00-1.01-.706 1.53 1.53 0 00-1.198.258 6.833 6.833 0 01-3.572 1.009 6.833 6.833 0 01-3.57-1.01 1.541 1.541 0 00-1.2-.257 1.54 1.54 0 00-1.01.706c-.201.36-.26.786-.164 1.188.096.403.339.754.68.981 1 .594 2.061 1.07 3.166 1.421l-3.092 2.992a1.534 1.534 0 00-.443 1.085 1.553 1.553 0 00.443 1.084c.306.275.696.433 1.104.449a1.45 1.45 0 001.104-.449l2.946-2.992 3.018 2.992A1.395 1.395 0 0020.04 26a1.373 1.373 0 001.068-.507 1.534 1.534 0 00.442-1.084 1.554 1.554 0 00-.442-1.085z"/></svg><svg viewBox="0 0 20 20" id="search-icon" xmlns="http://www.w3.org/2000/svg"><path fill-rule="evenodd" clip-rule="evenodd" d="M9 2a7 7 0 100 14A7 7 0 009 2zM0 9a9 9 0 1118 0A9 9 0 010 9z"/><path fill-rule="evenodd" clip-rule="evenodd" d="M14.277 14.277a.945.945 0 011.336 0l4.11 4.11a.945.945 0 01-1.336 1.336l-4.11-4.11a.945.945 0 010-1.336z"/></svg><svg viewBox="0 0 20 18" id="tg" xmlns="http://www.w3.org/2000/svg"><path fill-rule="evenodd" clip-rule="evenodd" d="M1.375 7.749c5.369-2.54 8.949-4.215 10.74-5.024C17.229.415 18.292.013 18.985 0c.152-.003.493.038.713.233.186.164.238.386.262.541.025.156.055.51.031.788-.277 3.162-1.476 10.837-2.086 14.379-.259 1.498-.767 2-1.259 2.05-1.07.107-1.882-.767-2.917-1.505-1.621-1.154-2.537-1.872-4.11-2.998-1.818-1.301-.64-2.016.396-3.185.272-.306 4.984-4.96 5.075-5.383.011-.053.022-.25-.086-.354-.107-.104-.266-.068-.381-.04-.163.04-2.752 1.899-7.768 5.576-.735.548-1.4.815-1.997.801-.658-.015-1.923-.403-2.863-.735C.842 9.76-.075 9.545.005 8.854c.041-.36.498-.729 1.37-1.105z"/></svg><svg viewBox="0 0 22 23" id="viber" xmlns="http://www.w3.org/2000/svg"><path d="M19.533 2.244c-.575-.529-2.905-2.206-8.09-2.227 0 0-6.118-.37-9.12 2.346C.658 4.013.076 6.42.013 9.408c-.063 2.986-.14 8.583 5.297 10.1v2.318s0 .94.59 1.128c.75.237 1.192-.48 1.915-1.246.393-.425.94-1.044 1.347-1.518a21.08 21.08 0 006.904-.5c.751-.244 5.003-.78 5.698-6.384.736-5.771-.323-9.419-2.232-11.062zm.632 10.651c-.59 4.671-4.035 4.963-4.666 5.165a19.378 19.378 0 01-5.943.509s-2.357 2.784-3.094 3.55a.4.4 0 01-.337.139c-.126-.035-.161-.181-.161-.397v-3.85c-4.603-1.273-4.336-6.035-4.28-8.527.056-2.492.526-4.539 1.93-5.917C6.131 1.305 11.33 1.64 11.33 1.64c4.385 0 6.49 1.33 6.974 1.768 1.635 1.378 2.456 4.664 1.86 9.488z"/><path d="M13.572 9.275a1.65 1.65 0 00-.467-1.292 1.677 1.677 0 00-1.287-.504m3.262 2.276a3.621 3.621 0 00-.947-2.666 3.979 3.979 0 00-2.722-1.17"/><path d="M16.62 10.375a5.84 5.84 0 00-1.663-4.357A5.708 5.708 0 0010.86 4.41M11.89 13.173a.806.806 0 00.631-.236l.435-.543a.943.943 0 011.2-.16c.373.213.733.445 1.08.696.33.243.997.793.997.8a.813.813 0 01.175 1.072 4.488 4.488 0 01-.898 1.1 1.795 1.795 0 01-.919.439.398.398 0 01-.133 0 1.24 1.24 0 01-.386-.056 13.74 13.74 0 01-2.512-1.156 14.708 14.708 0 01-2.105-1.392 11.04 11.04 0 01-.947-.835h-.035a12.38 12.38 0 01-.842-.947 15.173 15.173 0 01-1.403-2.088A13.123 13.123 0 015.07 7.375a1.258 1.258 0 01-.063-.39.69.69 0 010-.132c.054-.339.208-.654.442-.905a4.52 4.52 0 01.99-1.066.833.833 0 011.087.175s.561.696.8.988c.238.292.533.8.701 1.072a.948.948 0 01-.168 1.197l-.547.425a.807.807 0 00-.239.633 5.622 5.622 0 001.423 2.38 5.685 5.685 0 002.394 1.421z"/></svg><svg viewBox="0 0 25 15" id="vk" xmlns="http://www.w3.org/2000/svg"><path d="M13.616 15C5.075 15 .203 9.37 0 0h4.279c.14 6.877 3.294 9.79 5.793 10.39V0H14.1v5.93c2.467-.254 5.059-2.957 5.933-5.93h4.029c-.671 3.664-3.482 6.366-5.481 7.477 1.999.901 5.2 3.259 6.418 7.523h-4.435c-.952-2.853-3.326-5.06-6.464-5.36V15h-.485z"/></svg><svg viewBox="0 0 32 32" id="vk-icon" xmlns="http://www.w3.org/2000/svg"><path fill-rule="evenodd" clip-rule="evenodd" d="M32 0H0v32h32V0zM6 10c.17 8.12 4.263 13 11.438 13h.407v-4.646c2.636.26 4.63 2.174 5.43 4.646H27c-1.023-3.696-3.712-5.739-5.391-6.52 1.679-.963 4.04-3.305 4.604-6.48h-3.384c-.735 2.577-2.912 4.919-4.985 5.14V10H14.46v9.005c-2.098-.52-4.748-3.045-4.866-9.005H6z"/></svg><svg viewBox="0 0 22 22" id="whatsup" xmlns="http://www.w3.org/2000/svg"><path d="M0 22l1.56-5.644A10.839 10.839 0 01.1 10.912C.089 4.89 5.002 0 11.039 0c2.93 0 5.68 1.13 7.753 3.194a10.833 10.833 0 012.38 3.539c.552 1.324.833 2.745.828 4.179 0 6.01-4.913 10.9-10.95 10.9-1.838 0-3.631-.455-5.235-1.33L0 22zm6.071-3.482l.334.2a9.143 9.143 0 004.634 1.264c5.013 0 9.1-4.07 9.1-9.06 0-2.417-.946-4.7-2.662-6.408a9.104 9.104 0 00-6.439-2.662c-5.023 0-9.11 4.07-9.11 9.06a9.01 9.01 0 001.391 4.823l.212.344-.925 3.349 3.464-.91h.001z"/><path fill-rule="evenodd" clip-rule="evenodd" d="M8.306 6.343c-.2-.455-.424-.466-.613-.466-.167-.011-.346-.011-.535-.011a1.02 1.02 0 00-.735.344c-.256.277-.958.931-.958 2.273s.98 2.639 1.114 2.816c.133.178 1.893 3.016 4.678 4.114 2.318.91 2.785.732 3.286.676.502-.055 1.615-.653 1.85-1.297.222-.632.222-1.186.156-1.297-.067-.11-.257-.178-.524-.322-.279-.133-1.615-.798-1.872-.887-.256-.088-.434-.133-.612.133-.178.278-.702.887-.868 1.065-.157.177-.324.2-.591.066-.279-.133-1.16-.421-2.206-1.353-.813-.72-1.359-1.618-1.526-1.884-.156-.278-.022-.422.123-.555.122-.122.278-.321.412-.477.133-.156.178-.277.278-.455.09-.177.045-.343-.022-.476-.067-.122-.59-1.464-.835-2.008v.001z"/><defs><linearGradient id="ka" x1="10.998" y1="22.003" x2="10.998" y2=".003" gradientUnits="userSpaceOnUse"><stop stop-color="#F9F9F9"/><stop offset="1" stop-color="#fff"/></linearGradient></defs></svg></svg>