<?xml version="1.0" encoding="utf-8"?><svg viewBox="0 0 502.66 502.66" xmlns="http://www.w3.org/2000/svg" xmlns:xlink="http://www.w3.org/1999/xlink"><style>:root>svg{display:none}:root>svg:target{display:block}</style><svg viewBox="0 0 14 8" id="chevrone-icon" xmlns="http://www.w3.org/2000/svg"><path fill-rule="evenodd" clip-rule="evenodd" d="M.293.293a1 1 0 000 1.414l6 6a1 1 0 001.414 0l6-6A1 1 0 0012.293.293L7 5.586 1.707.293a1 1 0 00-1.414 0z"/></svg><svg viewBox="0 0 502.664 502.664" id="icon" xmlns="http://www.w3.org/2000/svg"><path d="M153.821 358.226L0 274.337v-46.463l153.821-83.414v54.574L46.636 250.523l107.185 53.431v54.272zm26.273 29.358L282.103 115.08h32.227L212.084 387.584h-31.99zm168.749-29.358v-54.272l107.164-52.999-107.164-52.59v-53.927l153.821 83.522v46.183l-153.821 84.083z"/></svg><svg viewBox="0 0 14 22" id="ok" xmlns="http://www.w3.org/2000/svg"><path d="M7.029 11.37c3.43 0 6.228-2.553 6.228-5.685C13.257 2.553 10.46 0 7.029 0 3.56 0 .764 2.553.764 5.685c0 3.132 2.797 5.685 6.265 5.685zm0-8.034c1.417 0 2.573 1.056 2.573 2.35 0 1.293-1.156 2.348-2.573 2.348S4.456 6.98 4.456 5.685c-.038-1.293 1.118-2.349 2.573-2.349zm2.499 12.698c1.268-.272 2.498-.715 3.617-1.362.858-.476 1.119-1.532.56-2.315-.523-.783-1.679-1.02-2.537-.51-2.535 1.464-5.854 1.464-8.39 0-.858-.477-1.977-.273-2.536.51-.485.783-.224 1.805.634 2.281 1.118.647 2.35 1.09 3.617 1.362l-3.468 3.166a1.563 1.563 0 000 2.349c.373.34.82.477 1.305.477s.932-.17 1.305-.477l3.431-3.132 3.431 3.132c.709.647 1.865.647 2.573 0a1.563 1.563 0 000-2.349l-3.542-3.132z"/></svg><svg viewBox="0 0 32 32" id="ok-icon" xmlns="http://www.w3.org/2000/svg"><path fill-rule="evenodd" clip-rule="evenodd" d="M32 0H0v32h32V0zM12.21 14.261a5.282 5.282 0 003.743 1.584 5.165 5.165 0 002.039-.392 5.23 5.23 0 001.73-1.165 5.36 5.36 0 001.147-1.757 5.393 5.393 0 00.385-2.071 5.454 5.454 0 00-.38-2.085A5.386 5.386 0 0019.73 6.6 5.29 5.29 0 0018 5.415 5.223 5.223 0 0015.953 5a5.35 5.35 0 00-3.75 1.63 5.52 5.52 0 00-1.552 3.83 5.45 5.45 0 001.56 3.801zm2.88-5.867a2.18 2.18 0 011.725 0c.273.117.52.29.726.505a2.249 2.249 0 01.62 1.636 2.219 2.219 0 01-.657 1.553 2.129 2.129 0 01-1.551.615 2.076 2.076 0 01-1.567-.598 2.142 2.142 0 01-.642-1.57 2.275 2.275 0 01.62-1.636c.206-.216.453-.388.726-.505zm6.017 14.93l-3.02-2.992a15.812 15.812 0 003.24-1.42c.33-.24.558-.595.64-.997a1.653 1.653 0 00-.198-1.173 1.568 1.568 0 00-1.01-.706 1.53 1.53 0 00-1.198.258 6.833 6.833 0 01-3.572 1.009 6.833 6.833 0 01-3.57-1.01 1.541 1.541 0 00-1.2-.257 1.54 1.54 0 00-1.01.706c-.201.36-.26.786-.164 1.188.096.403.339.754.68.981 1 .594 2.061 1.07 3.166 1.421l-3.092 2.992a1.534 1.534 0 00-.443 1.085 1.553 1.553 0 00.443 1.084c.306.275.696.433 1.104.449a1.45 1.45 0 001.104-.449l2.946-2.992 3.018 2.992A1.395 1.395 0 0020.04 26a1.373 1.373 0 001.068-.507 1.534 1.534 0 00.442-1.084 1.554 1.554 0 00-.442-1.085z"/></svg><svg viewBox="0 0 20 18" id="tg" xmlns="http://www.w3.org/2000/svg"><path fill-rule="evenodd" clip-rule="evenodd" d="M1.375 7.749c5.369-2.54 8.949-4.215 10.74-5.024C17.229.415 18.292.013 18.985 0c.152-.003.493.038.713.233.186.164.238.386.262.541.025.156.055.51.031.788-.277 3.162-1.476 10.837-2.086 14.379-.259 1.498-.767 2-1.259 2.05-1.07.107-1.882-.767-2.917-1.505-1.621-1.154-2.537-1.872-4.11-2.998-1.818-1.301-.64-2.016.396-3.185.272-.306 4.984-4.96 5.075-5.383.011-.053.022-.25-.086-.354-.107-.104-.266-.068-.381-.04-.163.04-2.752 1.899-7.768 5.576-.735.548-1.4.815-1.997.801-.658-.015-1.923-.403-2.863-.735C.842 9.76-.075 9.545.005 8.854c.041-.36.498-.729 1.37-1.105z"/></svg><svg viewBox="0 0 22 23" id="viber" xmlns="http://www.w3.org/2000/svg"><path d="M19.533 2.244c-.575-.529-2.905-2.206-8.09-2.227 0 0-6.118-.37-9.12 2.346C.658 4.013.076 6.42.013 9.408c-.063 2.986-.14 8.583 5.297 10.1v2.318s0 .94.59 1.128c.75.237 1.192-.48 1.915-1.246.393-.425.94-1.044 1.347-1.518a21.08 21.08 0 006.904-.5c.751-.244 5.003-.78 5.698-6.384.736-5.771-.323-9.419-2.232-11.062zm.632 10.651c-.59 4.671-4.035 4.963-4.666 5.165a19.378 19.378 0 01-5.943.509s-2.357 2.784-3.094 3.55a.4.4 0 01-.337.139c-.126-.035-.161-.181-.161-.397v-3.85c-4.603-1.273-4.336-6.035-4.28-8.527.056-2.492.526-4.539 1.93-5.917C6.131 1.305 11.33 1.64 11.33 1.64c4.385 0 6.49 1.33 6.974 1.768 1.635 1.378 2.456 4.664 1.86 9.488z"/><path d="M13.572 9.275a1.65 1.65 0 00-.467-1.292 1.677 1.677 0 00-1.287-.504m3.262 2.276a3.621 3.621 0 00-.947-2.666 3.979 3.979 0 00-2.722-1.17"/><path d="M16.62 10.375a5.84 5.84 0 00-1.663-4.357A5.708 5.708 0 0010.86 4.41M11.89 13.173a.806.806 0 00.631-.236l.435-.543a.943.943 0 011.2-.16c.373.213.733.445 1.08.696.33.243.997.793.997.8a.813.813 0 01.175 1.072 4.488 4.488 0 01-.898 1.1 1.795 1.795 0 01-.919.439.398.398 0 01-.133 0 1.24 1.24 0 01-.386-.056 13.74 13.74 0 01-2.512-1.156 14.708 14.708 0 01-2.105-1.392 11.04 11.04 0 01-.947-.835h-.035a12.38 12.38 0 01-.842-.947 15.173 15.173 0 01-1.403-2.088A13.123 13.123 0 015.07 7.375a1.258 1.258 0 01-.063-.39.69.69 0 010-.132c.054-.339.208-.654.442-.905a4.52 4.52 0 01.99-1.066.833.833 0 011.087.175s.561.696.8.988c.238.292.533.8.701 1.072a.948.948 0 01-.168 1.197l-.547.425a.807.807 0 00-.239.633 5.622 5.622 0 001.423 2.38 5.685 5.685 0 002.394 1.421z"/></svg><svg viewBox="0 0 25 15" id="vk" xmlns="http://www.w3.org/2000/svg"><path d="M13.616 15C5.075 15 .203 9.37 0 0h4.279c.14 6.877 3.294 9.79 5.793 10.39V0H14.1v5.93c2.467-.254 5.059-2.957 5.933-5.93h4.029c-.671 3.664-3.482 6.366-5.481 7.477 1.999.901 5.2 3.259 6.418 7.523h-4.435c-.952-2.853-3.326-5.06-6.464-5.36V15h-.485z"/></svg><svg viewBox="0 0 32 32" id="vk-icon" xmlns="http://www.w3.org/2000/svg"><path fill-rule="evenodd" clip-rule="evenodd" d="M32 0H0v32h32V0zM6 10c.17 8.12 4.263 13 11.438 13h.407v-4.646c2.636.26 4.63 2.174 5.43 4.646H27c-1.023-3.696-3.712-5.739-5.391-6.52 1.679-.963 4.04-3.305 4.604-6.48h-3.384c-.735 2.577-2.912 4.919-4.985 5.14V10H14.46v9.005c-2.098-.52-4.748-3.045-4.866-9.005H6z"/></svg><svg viewBox="0 0 22 22" id="whatsup" xmlns="http://www.w3.org/2000/svg"><path d="M0 22l1.56-5.644A10.839 10.839 0 01.1 10.912C.089 4.89 5.002 0 11.039 0c2.93 0 5.68 1.13 7.753 3.194a10.833 10.833 0 012.38 3.539c.552 1.324.833 2.745.828 4.179 0 6.01-4.913 10.9-10.95 10.9-1.838 0-3.631-.455-5.235-1.33L0 22zm6.071-3.482l.334.2a9.143 9.143 0 004.634 1.264c5.013 0 9.1-4.07 9.1-9.06 0-2.417-.946-4.7-2.662-6.408a9.104 9.104 0 00-6.439-2.662c-5.023 0-9.11 4.07-9.11 9.06a9.01 9.01 0 001.391 4.823l.212.344-.925 3.349 3.464-.91h.001z"/><path fill-rule="evenodd" clip-rule="evenodd" d="M8.306 6.343c-.2-.455-.424-.466-.613-.466-.167-.011-.346-.011-.535-.011a1.02 1.02 0 00-.735.344c-.256.277-.958.931-.958 2.273s.98 2.639 1.114 2.816c.133.178 1.893 3.016 4.678 4.114 2.318.91 2.785.732 3.286.676.502-.055 1.615-.653 1.85-1.297.222-.632.222-1.186.156-1.297-.067-.11-.257-.178-.524-.322-.279-.133-1.615-.798-1.872-.887-.256-.088-.434-.133-.612.133-.178.278-.702.887-.868 1.065-.157.177-.324.2-.591.066-.279-.133-1.16-.421-2.206-1.353-.813-.72-1.359-1.618-1.526-1.884-.156-.278-.022-.422.123-.555.122-.122.278-.321.412-.477.133-.156.178-.277.278-.455.09-.177.045-.343-.022-.476-.067-.122-.59-1.464-.835-2.008v.001z"/><defs><linearGradient id="ia" x1="10.998" y1="22.003" x2="10.998" y2=".003" gradientUnits="userSpaceOnUse"><stop stop-color="#F9F9F9"/><stop offset="1" stop-color="#fff"/></linearGradient></defs></svg></svg>