<?xml version="1.0" encoding="utf-8"?><svg viewBox="0 0 502.66 502.66" xmlns="http://www.w3.org/2000/svg" xmlns:xlink="http://www.w3.org/1999/xlink"><style>:root>svg{display:none}:root>svg:target{display:block}</style><svg viewBox="0 0 14 8" id="chevrone-icon" xmlns="http://www.w3.org/2000/svg"><path fill-rule="evenodd" clip-rule="evenodd" d="M.293.293a1 1 0 000 1.414l6 6a1 1 0 001.414 0l6-6A1 1 0 0012.293.293L7 5.586 1.707.293a1 1 0 00-1.414 0z"/></svg><svg viewBox="0 0 502.664 502.664" id="icon" xmlns="http://www.w3.org/2000/svg"><path d="M153.821 358.226L0 274.337v-46.463l153.821-83.414v54.574L46.636 250.523l107.185 53.431v54.272zm26.273 29.358L282.103 115.08h32.227L212.084 387.584h-31.99zm168.749-29.358v-54.272l107.164-52.999-107.164-52.59v-53.927l153.821 83.522v46.183l-153.821 84.083z"/></svg><svg viewBox="0 0 200 90" id="logo-footer" xmlns="http://www.w3.org/2000/svg"><path d="M15.999 89.627h-3.05c-.25 0-.376-.125-.376-.374v-8.399H3.772v8.4c0 .248-.126.373-.377.373H.345c-.23 0-.345-.125-.345-.374V69.624c0-.249.115-.373.346-.373h3.049c.251 0 .377.124.377.373v7.995h8.8v-7.995c0-.249.127-.373.378-.373h3.049c.23 0 .346.124.346.373v19.63c0 .248-.116.373-.346.373zm16.801 0h-2.797c-.252 0-.378-.125-.378-.374v-6.221c0-.664.032-1.359.095-2.084l.188-1.68h-.063l-1.822 3.11-4.464 7.031c-.063.145-.188.218-.377.218h-2.86c-.23 0-.346-.125-.346-.374V74.695c0-.25.115-.373.346-.373h2.797c.252 0 .377.124.377.373v6.408c0 .684-.031 1.38-.094 2.084l-.189 1.68h.095l.188-.342c.147-.29.367-.684.66-1.182.294-.519.65-1.151 1.07-1.898l4.337-6.843c.084-.187.24-.28.471-.28H32.8c.252 0 .377.124.377.373v14.558c0 .25-.125.374-.377.374zm24.495 0h-3.426c-.21 0-.356-.073-.44-.218l-3.49-6.408h-1.76v6.252c0 .083-.041.166-.125.25a.3.3 0 01-.252.124H44.88c-.084 0-.167-.042-.251-.125-.084-.083-.126-.166-.126-.249v-6.252H42.68l-3.52 6.408c-.063.145-.21.218-.44.218h-3.364c-.146 0-.251-.083-.314-.25l4.62-8.087-4.054-6.533c0-.02-.01-.052-.032-.093a.274.274 0 01-.031-.125c0-.145.073-.218.22-.218h3.426c.23 0 .377.073.44.218l3.143 5.569h1.73v-5.413c0-.104.041-.187.125-.25.084-.082.167-.123.251-.123h2.924c.25 0 .377.124.377.373v5.413h1.728l3.175-5.569c.084-.145.23-.218.44-.218h3.3c.168 0 .262.032.283.094a.506.506 0 01.032.155c0 .021-1.373 2.26-4.118 6.72 3.039 5.288 4.568 7.984 4.59 8.088 0 .145-.106.228-.315.249zM67.5 90c-2.683 0-4.726-.653-6.13-1.96-1.404-1.306-2.106-3.214-2.106-5.724v-5.724c0-2.55.702-4.469 2.106-5.755 1.404-1.306 3.447-1.96 6.13-1.96 1.236 0 2.357.146 3.363.436 1.005.27 1.865.674 2.577 1.213a5.366 5.366 0 011.697 1.929c.398.767.598 1.628.598 2.582 0 .456-.021.82-.063 1.089-.021.249-.147.373-.377.373h-3.05c-.125 0-.22-.031-.282-.093-.042-.063-.063-.208-.063-.436 0-1.203-.346-2.136-1.037-2.8-.692-.684-1.792-1.026-3.3-1.026-1.468 0-2.589.384-3.364 1.15-.775.748-1.163 1.867-1.163 3.36v5.569c0 1.493.388 2.623 1.163 3.39.775.747 1.897 1.12 3.363 1.12 1.446 0 2.536-.32 3.27-.964.733-.643 1.1-1.503 1.1-2.582l-.032-.497c0-.208.094-.311.283-.311h3.08c.23 0 .367.145.409.435.02.083.031.187.031.311v.404c0 .996-.199 1.898-.597 2.707a5.651 5.651 0 01-1.634 2.022c-.692.56-1.551.995-2.578 1.306-1.006.29-2.137.436-3.395.436zm17.886-.373h-2.954c-.252 0-.377-.125-.377-.374V77.401H77.78c-.23 0-.346-.124-.346-.373v-2.333c0-.25.115-.373.346-.373h12.227c.251 0 .377.124.377.373v2.333c0 .249-.126.373-.377.373h-4.243v11.852c0 .25-.126.374-.378.374zM98.74 90c-2.159 0-3.856-.508-5.092-1.524-1.237-1.016-1.855-2.624-1.855-4.822v-3.36c0-2.177.618-3.774 1.855-4.79 1.236-1.037 2.933-1.556 5.092-1.556 2.158 0 3.845.519 5.06 1.556 1.236 1.016 1.855 2.613 1.855 4.79v3.36c0 2.178-.608 3.785-1.824 4.822C102.637 89.492 100.94 90 98.74 90zm0-3.142c2.137 0 3.206-1.161 3.206-3.484v-2.737c0-1.245-.262-2.147-.786-2.707s-1.33-.84-2.42-.84c-2.159 0-3.238 1.14-3.238 3.422v2.8c0 1.244.252 2.146.754 2.706.524.56 1.352.84 2.484.84zm25.911 2.769h-2.735c-.23 0-.345-.125-.345-.374l-.063-5.972c0-.311.063-1.545.188-3.702h-.094c-.608 1.348-1.1 2.323-1.477 2.924l-2.986 5.288a.479.479 0 01-.377.187.426.426 0 01-.378-.187l-2.986-5.288a29.927 29.927 0 01-.597-1.089c-.23-.498-.524-1.11-.88-1.835h-.094c.125 1.534.188 2.768.188 3.702l-.063 5.972c0 .25-.115.374-.345.374h-2.735c-.251 0-.377-.125-.377-.374l.283-14.558c0-.25.115-.373.346-.373h3.048c.168 0 .304.093.409.28l4.181 8.18 4.18-8.18c.084-.187.22-.28.409-.28h3.048c.252 0 .378.124.378.373l.251 14.558c0 .25-.126.374-.377.374zm19.714 0h-3.049c-.252 0-.377-.125-.377-.374V72.548H132.2v16.705c0 .25-.125.374-.377.374h-3.049c-.23 0-.345-.125-.345-.374V69.624c0-.249.115-.373.345-.373h15.591c.23 0 .345.124.345.373v19.63c0 .248-.115.373-.345.373zm3.507.373c-.377 0-.807-.041-1.289-.124-.21-.021-.314-.156-.314-.405v-2.27c0-.208.083-.312.251-.312l.849.031c.503 0 .859-.218 1.068-.653.231-.435.388-1.244.472-2.426l.754-9.146c.021-.25.147-.373.378-.373h10.403c.252 0 .378.124.378.373v14.558c0 .083-.042.166-.126.25a.3.3 0 01-.252.124h-2.986c-.209 0-.324-.125-.345-.374V77.401h-4.149l-.566 6.968c-.168 2.033-.597 3.484-1.289 4.356-.67.85-1.75 1.275-3.237 1.275zm29.289 0c-2.074 0-3.719-.519-4.935-1.555-1.194-1.037-1.791-2.613-1.791-4.729v-.31h-2.672v5.847c0 .25-.126.374-.377.374h-2.955c-.251 0-.377-.125-.377-.374V74.695c0-.25.126-.373.377-.373h2.955c.251 0 .377.124.377.373v5.693h2.672c0-2.137.576-3.744 1.728-4.822 1.174-1.079 2.84-1.618 4.998-1.618 2.033 0 3.657.519 4.872 1.556 1.236 1.016 1.854 2.592 1.854 4.728v3.484c0 2.136-.618 3.723-1.854 4.76-1.215 1.016-2.839 1.524-4.872 1.524zm0-3.173c1.069 0 1.834-.29 2.295-.871.482-.58.723-1.441.723-2.582v-2.8c0-1.14-.241-2.001-.723-2.582-.461-.58-1.226-.87-2.295-.87s-1.844.29-2.326.87c-.461.58-.691 1.442-.691 2.582v2.8c0 1.14.23 2.001.691 2.582.482.58 1.257.871 2.326.871zM193.218 90c-2.221 0-3.929-.54-5.124-1.618-1.173-1.099-1.76-2.654-1.76-4.666v-3.515c0-2.053.597-3.609 1.792-4.666 1.194-1.058 2.902-1.587 5.123-1.587 1.048 0 1.97.135 2.766.405.797.249 1.467.59 2.012 1.026.545.436.953.954 1.226 1.556.293.58.44 1.213.44 1.897v.187c0 .435-.126.653-.377.653h-2.829c-.21 0-.325-.166-.346-.498 0-.663-.262-1.171-.786-1.524-.503-.373-1.194-.56-2.074-.56-1.09 0-1.907.27-2.452.809-.524.54-.786 1.43-.786 2.675v2.8c0 1.182.262 2.053.786 2.613s1.331.84 2.42.84c.943 0 1.656-.187 2.138-.56.482-.373.723-.871.723-1.493 0-.311.115-.467.345-.467h2.829c.252 0 .377.114.377.342v.125c0 1.617-.544 2.893-1.634 3.826-1.069.933-2.672 1.4-4.809 1.4z"/><path fill-rule="evenodd" clip-rule="evenodd" d="M61.444 0H0v61.224h61.444V0zM37.569 20.204l-6.847-7.96-6.847 7.96H14.44v5.51l1.844 5.51V48.98h7.373v-4.592c0-3.889 3.164-7.041 7.066-7.041 3.902 0 7.066 3.152 7.066 7.04v4.593h7.373V31.225l1.844-5.51v-5.51H37.57zM130.568 0H69.124v61.224h61.444V0zm-14.04 24.138c-.01.04-.02.076-.02.111 0 .08 0 .16.141.319-.047.08-.047.12-.047.2-.047.079-.047.119-.047.198-1.173 10.354-5.21 24.014-9.528 24.014h-.328c-.047-.04-.094-.04-.141-.04h-.047c-.024 0-.047-.01-.07-.02-.024-.01-.047-.02-.071-.02-.047 0-.094 0-.141-.04 0-.04-.047-.04-.047-.04-.023 0-.035-.01-.047-.02a.062.062 0 00-.046-.02l-.047-.04-.094-.079-.047-.04c-.024-.02-.035-.04-.047-.06a.222.222 0 00-.047-.06.57.57 0 00-.141-.159l-.047-.04c-.023-.02-.035-.04-.047-.06-.012-.019-.023-.039-.047-.059v-.08c-.06-.077-.101-.154-.148-.242-.026-.048-.053-.1-.086-.156a4.133 4.133 0 01-.423-2.35c.047-.397.047-.796.047-1.194 0-4.46-2.206-8.044-4.975-8.204-2.77.16-4.975 3.744-4.975 8.204 0 .398 0 .797.047 1.195.046.796-.047 1.593-.423 2.35-.047.059-.082.129-.117.198-.035.07-.07.14-.118.2v.08a.21.21 0 00-.046.059.21.21 0 01-.047.06l-.047.04a.567.567 0 01-.141.159c0 .04-.047.08-.094.12l-.047.039-.094.08-.047.04c-.023 0-.035.01-.047.02a.063.063 0 01-.047.02c0 .04-.047.04-.047.04-.023 0-.047.01-.07.019a.187.187 0 01-.07.02c-.024 0-.047.01-.07.02-.024.01-.048.02-.071.02h-.047c-.047.04-.094.04-.141.04h-.328c-4.319 0-8.355-13.66-9.529-24.014-.046-.08-.046-.12-.046-.199-.047-.08-.047-.12-.047-.199a.625.625 0 00-.027-.168c-.01-.04-.02-.075-.02-.11a.625.625 0 00-.027-.168.438.438 0 01-.02-.111c-.047-.04-.047-.12-.047-.2 0-.08-.012-.159-.024-.239a1.638 1.638 0 01-.023-.238v-.16a.945.945 0 01-.047-.358v-.16c-.047-.119-.047-.238-.047-.358v-2.827c0-3.505 2.44-7.129 7.604-7.129h.047c.891-.12 1.877-.04 3.004.12 2.153.09 4.387 1.013 5.521 1.482.374.155.628.26.721.27.096-.01.362-.119.753-.278 1.144-.466 3.356-1.366 5.49-1.514 1.079-.16 2.112-.239 3.003-.12h.047c5.163 0 7.604 3.624 7.604 7.129v2.828c-.047.119-.047.238-.047.358v.159c0 .06-.012.12-.023.18a.906.906 0 00-.024.178v.16c0 .08-.012.159-.023.239-.012.08-.024.159-.024.238-.047.04-.047.12-.047.2 0 .065-.014.12-.027.167zM199.693 0h-61.444v61.224h61.444V0zm-36.201 12.245h10.958v12.908h12.954v10.919H174.45V48.98h-10.958V36.072h-12.954v-10.92h12.954V12.246z"/></svg><svg viewBox="0 0 22 22" id="ok" xmlns="http://www.w3.org/2000/svg"><path d="M11.524 11.303c2.696 0 4.894-2.089 4.894-4.652C16.418 4.09 14.22 2 11.524 2 8.8 2 6.602 4.089 6.602 6.651c0 2.563 2.197 4.652 4.922 4.652zm0-6.573c1.114 0 2.022.863 2.022 1.921 0 1.059-.908 1.922-2.022 1.922-1.113 0-2.022-.863-2.022-1.922-.029-1.058.88-1.921 2.022-1.921zm1.962 10.389a9.531 9.531 0 002.842-1.114c.674-.39.88-1.254.44-1.894-.41-.641-1.319-.836-1.993-.418-1.992 1.197-4.6 1.197-6.593 0-.674-.39-1.553-.223-1.992.418a1.35 1.35 0 00.498 1.866c.88.529 1.846.891 2.842 1.114l-2.725 2.59a1.315 1.315 0 000 1.922c.293.279.645.39 1.026.39.38 0 .732-.14 1.025-.39l2.696-2.562 2.696 2.562c.557.53 1.465.53 2.022 0a1.315 1.315 0 000-1.922l-2.784-2.562z"/></svg><svg viewBox="0 0 32 32" id="ok-icon" xmlns="http://www.w3.org/2000/svg"><path fill-rule="evenodd" clip-rule="evenodd" d="M32 0H0v32h32V0zM12.21 14.261a5.282 5.282 0 003.743 1.584 5.165 5.165 0 002.039-.392 5.23 5.23 0 001.73-1.165 5.36 5.36 0 001.147-1.757 5.393 5.393 0 00.385-2.071 5.454 5.454 0 00-.38-2.085A5.386 5.386 0 0019.73 6.6 5.29 5.29 0 0018 5.415 5.223 5.223 0 0015.953 5a5.35 5.35 0 00-3.75 1.63 5.52 5.52 0 00-1.552 3.83 5.45 5.45 0 001.56 3.801zm2.88-5.867a2.18 2.18 0 011.725 0c.273.117.52.29.726.505a2.249 2.249 0 01.62 1.636 2.219 2.219 0 01-.657 1.553 2.129 2.129 0 01-1.551.615 2.076 2.076 0 01-1.567-.598 2.142 2.142 0 01-.642-1.57 2.275 2.275 0 01.62-1.636c.206-.216.453-.388.726-.505zm6.017 14.93l-3.02-2.992a15.812 15.812 0 003.24-1.42c.33-.24.558-.595.64-.997a1.653 1.653 0 00-.198-1.173 1.568 1.568 0 00-1.01-.706 1.53 1.53 0 00-1.198.258 6.833 6.833 0 01-3.572 1.009 6.833 6.833 0 01-3.57-1.01 1.541 1.541 0 00-1.2-.257 1.54 1.54 0 00-1.01.706c-.201.36-.26.786-.164 1.188.096.403.339.754.68.981 1 .594 2.061 1.07 3.166 1.421l-3.092 2.992a1.534 1.534 0 00-.443 1.085 1.553 1.553 0 00.443 1.084c.306.275.696.433 1.104.449a1.45 1.45 0 001.104-.449l2.946-2.992 3.018 2.992A1.395 1.395 0 0020.04 26a1.373 1.373 0 001.068-.507 1.534 1.534 0 00.442-1.084 1.554 1.554 0 00-.442-1.085z"/></svg><svg viewBox="0 0 20 20" id="search-icon" xmlns="http://www.w3.org/2000/svg"><path fill-rule="evenodd" clip-rule="evenodd" d="M9 2a7 7 0 100 14A7 7 0 009 2zM0 9a9 9 0 1118 0A9 9 0 010 9z"/><path fill-rule="evenodd" clip-rule="evenodd" d="M14.277 14.277a.945.945 0 011.336 0l4.11 4.11a.945.945 0 01-1.336 1.336l-4.11-4.11a.945.945 0 010-1.336z"/></svg><svg viewBox="0 0 22 22" id="tg" xmlns="http://www.w3.org/2000/svg"><path fill-rule="evenodd" clip-rule="evenodd" d="M3.169 10.457c4.563-2.116 7.606-3.512 9.129-4.186 4.347-1.925 5.25-2.26 5.839-2.27.13-.003.419.03.607.193.158.137.201.322.222.451.021.13.047.425.026.656-.235 2.636-1.255 9.031-1.773 11.983-.22 1.249-.652 1.668-1.07 1.709-.909.089-1.6-.64-2.48-1.255-1.377-.961-2.156-1.56-3.493-2.498-1.546-1.084-.544-1.68.337-2.654.23-.255 4.236-4.134 4.313-4.486.01-.044.02-.208-.072-.295-.092-.086-.227-.057-.324-.033-.139.033-2.34 1.582-6.603 4.646-.625.457-1.191.68-1.698.668-.559-.013-1.634-.336-2.433-.613-.98-.34-1.76-.519-1.692-1.095.035-.3.424-.607 1.165-.92z"/></svg><svg viewBox="0 0 22 22" id="viber" xmlns="http://www.w3.org/2000/svg"><rect x="3" y="3" width="16" height="15" rx="5"/><path d="M6.954 20.927l-.591-3.867 3.023.803-2.432 3.064z"/><path d="M17.982 3.854c-.47-.437-2.377-1.823-6.62-1.84 0 0-5.005-.305-7.462 1.938-1.36 1.363-1.837 3.352-1.889 5.82-.051 2.466-.114 7.09 4.335 8.344v1.914s0 .777.482.932c.614.196.976-.397 1.567-1.03.321-.35.77-.862 1.102-1.253a17.09 17.09 0 005.649-.414c.614-.201 4.093-.644 4.661-5.273.603-4.767-.264-7.78-1.825-9.138zm.516 8.798c-.482 3.86-3.3 4.1-3.817 4.267a15.71 15.71 0 01-4.862.42s-1.93 2.3-2.532 2.933a.327.327 0 01-.276.115c-.103-.029-.132-.15-.132-.328v-3.18c-3.765-1.052-3.547-4.986-3.501-7.044.046-2.059.43-3.75 1.578-4.888 2.061-1.87 6.315-1.593 6.315-1.593 3.588 0 5.31 1.098 5.706 1.46 1.338 1.14 2.01 3.853 1.521 7.838z"/><path fill-rule="evenodd" clip-rule="evenodd" d="M11.653 7.832a1.71 1.71 0 011.699 1.137c.083.23.115.477.095.721a.345.345 0 01-.37.318.346.346 0 01-.315-.374 1.027 1.027 0 00-1.075-1.109.345.345 0 01-.36-.33.346.346 0 01.326-.363z"/><path fill-rule="evenodd" clip-rule="evenodd" d="M10.992 6.882a.345.345 0 01.352-.338 3.583 3.583 0 012.473 1.078 3.363 3.363 0 01.864 2.458.345.345 0 01-.363.325.346.346 0 01-.323-.367 2.667 2.667 0 00-.68-1.942 2.899 2.899 0 00-1.988-.859.345.345 0 01-.335-.355z"/><path fill-rule="evenodd" clip-rule="evenodd" d="M10.878 5.296a4.972 4.972 0 013.6 1.426l.006.007a5.208 5.208 0 011.458 3.858.345.345 0 01-.359.33.346.346 0 01-.328-.362 4.516 4.516 0 00-1.26-3.339 4.295 4.295 0 00-3.102-1.227.345.345 0 01-.35-.339.345.345 0 01.335-.354z"/><path d="M11.729 12.882a.653.653 0 00.517-.195l.355-.449a.77.77 0 01.982-.132c.305.176.6.368.884.575.27.201.815.655.815.661a.673.673 0 01.144.886c-.196.34-.444.646-.735.908-.21.192-.472.318-.752.363a.322.322 0 01-.11 0 1.003 1.003 0 01-.315-.046 11.189 11.189 0 01-2.055-.955 12.008 12.008 0 01-1.722-1.15 9.051 9.051 0 01-.775-.69h-.029c-.243-.249-.473-.51-.689-.782a12.55 12.55 0 01-1.148-1.725 10.89 10.89 0 01-.947-2.059 1.048 1.048 0 01-.052-.322.576.576 0 010-.11 1.43 1.43 0 01.362-.747 3.73 3.73 0 01.81-.88.676.676 0 01.89.144s.458.575.654.817c.195.241.436.661.574.885a.789.789 0 01-.138.99l-.448.35a.667.667 0 00-.195.523 4.654 4.654 0 003.123 3.14z"/></svg><svg viewBox="0 0 22 22" id="vk" xmlns="http://www.w3.org/2000/svg"><path d="M11.893 17C5.06 17 1.163 12.495 1 5h3.423c.112 5.502 2.636 7.832 4.634 8.312V5h3.223v4.745C14.255 9.54 16.328 7.378 17.027 5h3.223c-.537 2.93-2.785 5.093-4.384 5.982 1.599.72 4.16 2.607 5.134 6.018h-3.548c-.762-2.282-2.66-4.048-5.172-4.288V17h-.387z"/></svg><svg viewBox="0 0 32 32" id="vk-icon" xmlns="http://www.w3.org/2000/svg"><path fill-rule="evenodd" clip-rule="evenodd" d="M32 0H0v32h32V0zM6 10c.17 8.12 4.263 13 11.438 13h.407v-4.646c2.636.26 4.63 2.174 5.43 4.646H27c-1.023-3.696-3.712-5.739-5.391-6.52 1.679-.963 4.04-3.305 4.604-6.48h-3.384c-.735 2.577-2.912 4.919-4.985 5.14V10H14.46v9.005c-2.098-.52-4.748-3.045-4.866-9.005H6z"/></svg><svg viewBox="0 0 22 22" id="whatsup" xmlns="http://www.w3.org/2000/svg"><circle cx="11.5" cy="11.5" r="7.5"/><path d="M4.5 18.5l1-2.5v-.5l3 2-4 1z"/><path d="M3 20l1.205-4.361a8.376 8.376 0 01-1.128-4.207C3.07 6.779 6.865 3 11.53 3a8.43 8.43 0 015.99 2.468A8.37 8.37 0 0120 11.432c0 4.644-3.796 8.422-8.461 8.422a8.426 8.426 0 01-4.046-1.028L3 20zm4.691-2.69l.258.154a7.064 7.064 0 003.581.977c3.873 0 7.033-3.145 7.033-7.001a6.95 6.95 0 00-2.058-4.952A7.009 7.009 0 0011.53 4.43c-3.882 0-7.04 3.145-7.04 7 0 1.32.37 2.614 1.075 3.728l.163.266-.714 2.587 2.677-.702z"/><path fill-rule="evenodd" clip-rule="evenodd" d="M9.418 7.902c-.155-.352-.327-.36-.473-.36-.13-.009-.268-.009-.414-.009a.788.788 0 00-.568.266c-.198.214-.74.72-.74 1.756 0 1.037.757 2.04.86 2.177.104.137 1.463 2.33 3.615 3.179 1.791.702 2.153.565 2.54.522.387-.043 1.248-.505 1.429-1.003.171-.488.171-.916.12-1.002-.052-.085-.198-.137-.404-.249-.216-.102-1.248-.616-1.446-.685-.198-.069-.336-.103-.474.103-.137.214-.542.685-.67.822-.122.137-.251.155-.457.052-.216-.103-.896-.326-1.704-1.046-.63-.557-1.05-1.25-1.18-1.456-.12-.214-.017-.326.095-.429.095-.094.215-.248.318-.368.104-.12.138-.214.216-.351.068-.138.034-.266-.018-.369-.052-.094-.456-1.131-.645-1.55z"/></svg></svg>